<svg xmlns="http://www.w3.org/2000/svg" viewBox="0 0 100 100" width="100%" height="100%" fill="currentColor">
  <g transform="translate(0.0000 0.0000) scale(1.000000)">
  <g transform="translate(0.0001 0.0000) scale(1.000000)">
  <g transform="translate(13.0112 10.0000) scale(0.349063)"><g><path d="M48.653,31.139c0.127-0.002,0.249-0.005,0.375-0.007c-1.17-3.75-4.945-6.166-8.931-5.508   c-3.151,0.521-5.558,2.821-6.382,5.7c0.304,0.001,0.604,0.002,0.915,0.002C39.156,31.326,43.984,31.232,48.653,31.139z"/><path d="M132.916,27.602c2.818-12.1-4.709-24.193-16.807-27.011c-12.1-2.817-24.193,4.708-27.012,16.808   c-1.332,5.724-0.348,11.445,2.338,16.185c0.432,0.76,0.908,1.493,1.424,2.198c3.066,4.194,7.59,7.356,13.047,8.626   c7.785,1.814,15.564-0.66,20.875-5.874c0.64-0.628,1.247-1.293,1.811-2C130.621,33.996,132.131,30.978,132.916,27.602z"/><path d="M135.379,52.258h46.687c4.564,0,7.549,1.637,9.503,3.781c3.701,4.066,3.702,9.937,3.702,9.937   c0,5.207-4.246,10.41-4.246,10.41v10.057l3.422,3.43h13.441l3.536-3.549v-9.937c0,0-3.418-5.203-3.419-10.41   c0.001-5.201,3.775-9.818,3.775-9.818s0.003-0.043,0.01-0.119c0.215-2.596,3.501-49.379-38.686-55.359   c0,0,22.167,11.826,22.167,30.281c0,7.574-9.433,7.574-13.206,7.574l-51.873-0.001c-4.616,5.545-11.524,8.965-19.162,8.965   c-1.906,0-3.82-0.219-5.69-0.655c-6.841-1.594-12.365-5.875-15.73-11.464c-9.849-1.196-21.581-2.405-28.762-2.405   c-3.423,0-7.329,0.072-11.391,0.151c-5.323,0.104-10.913,0.218-16.049,0.197c-7.204-0.029-13.508-0.325-16.896-1.295   c0,0-16.511-3.266-16.511,3.313c0,6.576,0,13.295,0,19.873c0,6.576,16.512,3.314,16.512,3.314   c4.476-1.284,14.039-1.39,24.047-1.257c7.088,0.094,14.399,0.308,20.287,0.308c0.297,0,0.611-0.005,0.924-0.009   c4.85-0.063,11.461-0.602,18.145-1.298c1.669-0.173,3.34-0.357,4.99-0.545c-0.355,0.651-0.619,1.359-0.776,2.106   c-8.434,0.945-17.335,1.747-23.282,1.747c-3.652,0-7.797-0.081-12.184-0.166c-2.297-0.045-4.631-0.091-6.949-0.126   c1.518,2.506,3.193,4.723,5.035,6.655c6.275,6.642,14.385,9.223,21.351,9.223c0.112,0,0.224-0.001,0.335-0.002   c6.004-0.023,11.287-1.536,15.527-3.232v35.208c-0.08,0.571-0.137,1.149-0.137,1.742v107.939c0,6.828,5.537,12.363,12.363,12.363   c6.828,0,12.365-5.535,12.365-12.363v-81.273h4.771v81.273c0,6.828,5.537,12.363,12.363,12.363c6.828,0,12.365-5.535,12.365-12.363   v-89v-18.939V71.883c1.188,1.328,2.496,3.125,3.871,5.581c4.27,7.746,8.699,22.284,9.463,47.965   c0.131,4.333,3.684,7.757,7.99,7.758c0.082,0,0.165-0.002,0.248-0.004c4.415-0.135,7.888-3.823,7.754-8.239   c-1.034-33.214-7.631-51.199-15.535-61.493c-3.547-4.6-7.393-7.497-10.769-9.191c-0.375-0.188-0.748-0.372-1.11-0.531   C138.219,52.956,136.66,52.514,135.379,52.258z"/></g></g>
</g>
</g>
</svg>
