<svg xmlns="http://www.w3.org/2000/svg" viewBox="0 0 100 100" width="100%" height="100%" fill="currentColor" stroke="currentColor" stroke-width="2" stroke-linejoin="round" stroke-linecap="round">
  <g transform="translate(0.0000 -0.0000) scale(1.000000)">
  <g transform="translate(0.0000 0.0001) scale(1.000000)">
  <g transform="translate(3.9110 3.9111) scale(0.921778)"><path d="M61.0429688,47.9301758c0.0585938-0.0693359,0.1044922-0.1484375,0.1347656-0.2338867  c0.0380859-0.1079102,0.9277344-2.6762695-0.3525391-4.8608398c-0.0855103-0.1459961-0.1824341-0.2832031-0.2824097-0.4180908  c0.4516602-0.1080322,0.9827271-0.1566162,1.4142456,0.0640869c0.1777344,0.2177734,0.7236328,1.0249023,0.2490234,2.2407227  c-0.1503906,0.3857422,0.0410156,0.8208008,0.4267578,0.9711914c0.0898438,0.0351563,0.1816406,0.0512695,0.2724609,0.0512695  c0.2998047,0,0.5830078-0.1811523,0.6992188-0.4775391c0.9101563-2.3349609-0.5800781-3.8476563-0.6445313-3.9111328  c-0.0400391-0.0400391-0.0859375-0.0756836-0.1347656-0.1054688c-0.213501-0.1315308-0.4353027-0.2189331-0.6591797-0.2872314  V28.0537109c-0.0058594-1.2026367-0.5175781-3.293457-2.3583984-3.4936523  c-0.1269531-0.0200195-1.2666016-0.1772461-2.2617188,0.6352539c-0.8076172,0.6591797-1.2470703,1.7290039-1.3056641,3.1796875  c-0.0175781,0.4140625,0.3046875,0.7631836,0.71875,0.7802734c0.3847656,0.0131836,0.7626953-0.3046875,0.7792969-0.71875  c0.0400391-0.9794922,0.296875-1.6943359,0.7421875-2.0678711c0.4824219-0.4047852,1.0683594-0.3300781,1.1259766-0.3227539  c1.0107422,0.1103516,1.0595703,1.9985352,1.0595703,2.0117188v12.803894  c-0.4564209,0.0630493-0.8867798,0.190918-1.2509766,0.3338013c-0.0402832,0.0157471-0.0687866,0.0457764-0.1046753,0.0673218  c-0.642334-0.4268188-1.4173584-0.7473145-2.3244629-0.9567871c-0.3287964-5.4265747-2.3963013-7.7435303-4.1773071-8.718811  c1.4452515-1.225708,2.2246094-3.5782471,1.8339844-6.1104736c-0.1021118-0.6634521-0.3005371-1.2831421-0.5419312-1.8791504  l0.2177124-0.0212402c0.2138672-0.0209961,0.4091797-0.1328125,0.5351563-0.3076172  c0.1259766-0.1743164,0.1708984-0.3950195,0.1230469-0.6049805c-0.5625-2.4794922-2.8154297-3.9604492-6.0263672-3.9604492  c-0.3994141,0-0.6464844,0.0263672-0.6738281,0.0297852c-2.3818359,0.3320313-4.0878906,1.2924805-5.0712891,2.8535156  c-1.6005859,2.5419922-0.625,5.6953125-0.5703125,5.8652344c0.7612305,2.0217285,0.5927734,3.3029175,0.2444458,4.0785522  c-0.0133667,0.0021362-0.026001-0.0023804-0.0393677,0.0005493c-1.0310059,0.2232666-2.5602417,0.7734985-3.9274292,2.1075439  c-0.015625,0.0151367-0.0314941,0.0284424-0.0457153,0.0449219c-2.1276245,2.1091309-3.8414307,6.1447754-2.6254883,13.8787842  c0.0126953,0.078125,0.0371094,0.1538086,0.0732422,0.2241211c0.0361328,0.0712891,0.9179688,1.7685547,3.3164063,3.7207031  c0.008606,0.007019,0.019165,0.0091553,0.0280151,0.015686c0.2032471,0.8363037,0.4700317,1.6965942,0.8199463,2.5454712  c-0.1143188,0.8676147-0.7815552,5.0303345-3.3147583,7.411499c-0.1796875,0.1367188-1.765625,1.4560547-2.0273438,5.7167969  c-0.0153809,0.2637329,0.1106567,0.5144043,0.3284912,0.6629028c-0.0726929,0.0777588-0.1392212,0.1553955-0.1956787,0.2311401  c-1.2236328,1.6396484-0.4785156,4.3164063-0.3916016,4.6088867c0.8496094,2.9736328,2.7402344,3.2104492,3.3193359,3.2104492  c0.0957031,0,0.1552734-0.0063477,0.1689453-0.0083008c0.0400391-0.0048828,0.0791016-0.0126953,0.1171875-0.0234375  c2.0238037-0.578186,2.0880127-4.1046143,2.0509644-5.2921753c1.270752-0.5120239,2.1600952-1.5698242,2.6594849-2.3399658  c0.0620117,0.0684204,0.1290894,0.1257324,0.1879883,0.2009888c0.0361328,0.0458984,0.0771484,0.0874023,0.1220703,0.1235352  c0.093689,0.0747681,1.6411133,1.3013916,3.9387817,2.6096802c-0.1815796,0.8403931-0.3560181,2.3758545,0.4254761,3.5988159  c0.5996094,0.9375,1.6035156,1.4833984,2.9765625,1.6201172c0.0703125,0.0083008,0.3125,0.0322266,0.6484375,0.0322266  c0.7548828,0,1.9785156-0.1220703,2.7666016-0.8242188c0.4785156-0.4267578,0.7333984-1.0087891,0.7353516-1.6835938  c0.0009766-0.4140625-0.3330078-0.7509766-0.7480469-0.7524414c0,0-0.0009766,0-0.0019531,0  c-0.4130859,0-0.7490234,0.3339844-0.75,0.7475586c-0.0009766,0.2495117-0.0722656,0.4248047-0.2324219,0.5678711  c-0.5410156,0.4848633-1.8398438,0.4633789-2.2607422,0.4213867c-0.9121094-0.0913086-1.5224609-0.3964844-1.8671875-0.9326172  c-0.3764038-0.5856323-0.3892212-1.4002075-0.3049927-2.0471802c0.7154541,0.3637085,1.4786987,0.7180786,2.2756958,1.0393677  c0.4560547,0.1835938,0.8671875,0.2753906,1.2304688,0.2753906c0.3222656,0,0.6074219-0.0722656,0.8525391-0.2163086  c0.5644531-0.3320313,0.6591797-0.8847656,0.6728516-0.9921875c0.0185547-0.1469727-0.0068359-0.2958984-0.0732422-0.4282227  c-0.6679688-1.3369141,0.0283203-3.3505859,0.046875-3.4038086c1.8634644-6.1445923,1.8143921-15.1201782,1.7324219-18.2302856  c0.4330444,0.1101074,0.8953247,0.1816406,1.3896484,0.2029419c0.0107422,0.0004883,0.0214844,0.0004883,0.0322266,0.0004883  c0.0263672,0,0.0527344-0.0014648,0.0791016-0.0043945C57.1611328,50.1611328,59.3681641,49.9072266,61.0429688,47.9301758z   M50.7851563,30.9482422c-0.0836792,0.0130005-0.1687622,0.0040894-0.2532349,0.0064697  c0.2097778-0.7087402,0.1953735-1.3223267,0.1627197-1.6265259c0.8275146-1.3534546,1.8406982-1.6333008,2.4799194-1.6500854  C52.9345093,29.4048462,52.024353,30.756897,50.7851563,30.9482422z M53.1601563,25.7050781  c0.0246582,0.1599731,0.0269165,0.3156738,0.0404053,0.4737549c-0.8713379,0.0170288-1.977478,0.331543-2.9483643,1.2947388  l-0.5324707-2.1137085c-0.1123047-0.3168945-0.2080078-0.7495117-0.0244141-1.0087891  c0.2382813-0.3378906,0.9306641-0.4477539,1.3056641-0.4511719l1.5373535-0.1500244  C52.8303833,24.3486328,53.053772,25.0113525,53.1601563,25.7050781z M44.4794922,22.378418  c0.7373047-1.1655273,2.0849609-1.8920898,3.9755859-2.1567383c0.0166016-0.0014648,0.203125-0.0185547,0.4951172-0.0185547  c1.2841797,0,3.3925781,0.277832,4.2695313,1.9741211l-2.2949219,0.2260742c-0.2822266,0-1.7265625,0.0522461-2.4541016,1.0820313  c-0.3056641,0.4326172-0.5830078,1.1958008-0.1855469,2.3076172l0.9021606,3.585144  c0.0018921,0.0067749,0.0029907,0.0133057,0.0050659,0.0200806l0.0097656,0.0388184  c0.0068359,0.0439453,0.171875,1.0917969-0.5732422,1.972168c-0.7324219,0.8642578-2.1621094,1.3212891-4.1367188,1.3212891  l-0.1542969,0.0043945l-0.3681641-0.050293c0.6728516-1.0415039,1.1679688-2.8417969,0.0820313-5.7226563  C44.0439453,26.9355469,43.2480469,24.3232422,44.4794922,22.378418z M40.4403687,68.9703979  c-0.1365356-0.2030029-0.3581543-0.3429565-0.624939-0.3336792c-0.4140625,0.0083008-0.7431641,0.3505859-0.7353516,0.7646484  c0.0058594,0.2729492-0.0107422,0.5698242-0.0488281,0.8833008c-0.0058594,0.0429688-0.0068359,0.0869141-0.0048828,0.1308594  c0.078125,1.4648438-0.1972656,3.6757813-0.8916016,3.996582c-0.2441406-0.0117188-1.2587891-0.1811523-1.8173828-2.1323242  c-0.1699219-0.5727539-0.5068359-2.4072266,0.1542969-3.2924805c0.28125-0.3769531,0.7421875-0.5605469,1.4082031-0.5605469  c0.4140625,0,0.75-0.3359375,0.75-0.75c0-0.1987305-0.0805664-0.3770142-0.2068481-0.5112305  c1.0908203-0.2371826,2.4130249-0.315918,3.5546875,0.1911621C41.6669312,67.8501587,41.1467896,68.5328369,40.4403687,68.9703979z   M52.4111328,67.7319336c-0.0351563,0.097168-0.765625,2.1879883-0.1835938,4.0043945  c-0.1210938-0.0146484-0.3027344-0.0561523-0.5615234-0.1606445c-3.6708984-1.4794922-6.6914063-3.7626953-7.1621094-4.1274414  c-2.2451172-2.7744141-5.8662109-2.0244141-7.7460938-1.3735352c0.3798828-2.5883789,1.3212891-3.4067383,1.3720703-3.4506836  c3.3017578-3.0961914,3.8417969-8.3608398,3.8623047-8.5834961c0.0011597-0.0122681-0.0042114-0.0230103-0.0036011-0.0351563  c0.0026855-0.0512695-0.0075684-0.1012573-0.0157471-0.1530151c-0.0078735-0.0487061-0.0126343-0.0964966-0.029541-0.1418457  c-0.0045166-0.0122681-0.0025635-0.0250244-0.0077515-0.0371704c-1.6376953-3.8208008-1.3984375-8.1904297-1.3955078-8.234375  c0.0244141-0.4130859-0.2910156-0.7685547-0.7041016-0.793457c-0.4189453-0.0336914-0.7685547,0.2890625-0.7939453,0.703125  c-0.0067139,0.1102905-0.0915527,1.6604614,0.1712036,3.7440186c-0.8959351-0.923645-1.3651123-1.649231-1.5100708-1.895874  c-0.8688965-5.6461792-0.1244507-9.0739136,1.1756592-11.1627808c0.6583862,4.5565796,3.451416,16.2687378,14.9151611,19.3624878  c0.0654297,0.0175781,0.1308594,0.0258789,0.1953125,0.0258789c0.017395,0,0.0332642-0.0070801,0.0504761-0.0083008  C53.9139404,59.2632446,53.5159302,64.0882568,52.4111328,67.7319336z M54.0770264,53.9151611  c-12.0537109-3.3342896-13.6876831-17.1819458-13.8743286-19.4512939c0.4852295-0.4209595,0.9908447-0.7351685,1.4904785-0.9685669  c0.0981445,0.24823,0.3157349,0.4342041,0.5880737,0.4714966l1.093811,0.1471558  c0.5135498,1.8287964,2.5682373,8.0733643,7.022522,10.0767822l0.2303467,0.9899292  c0.352478,1.1707153,1.4436035,3.0978394,3.4193115,4.1860352C54.0721436,50.1077881,54.1131592,51.7789917,54.0770264,53.9151611z   M59.8017578,47.0717773c-1.1425781,1.2700195-2.5761719,1.5571289-2.8466797,1.6010742  c-3.7021484-0.2011719-4.8447266-3.7739258-4.8789063-3.878418l-1.1816406-5.0869141  c-0.09375-0.4038086-0.4960938-0.6538086-0.9003906-0.5605469c-0.4033203,0.09375-0.6542969,0.496582-0.5605469,0.9003906  l0.5011597,2.1538696c-2.8152466-1.9938354-4.3782959-6.1265869-4.960144-7.9866943  c2.2003784-0.078125,3.8110962-0.6868896,4.7822876-1.8226318c0.2383423,0.0485229,0.477356,0.0802612,0.7167358,0.0802612  c0.1221313,0,0.2446289-0.0153809,0.3670654-0.0281982c1.6051636,0.3208008,5.0952148,2.024353,4.663208,10.8031006  c-0.0205078,0.4135742,0.2988281,0.7651367,0.7119141,0.7856445c0.0126953,0.0004883,0.0253906,0.0009766,0.0380859,0.0009766  c0.3964844,0,0.7285156-0.3120117,0.7480469-0.7133789c0.0249023-0.5061646,0.0285034-0.9769897,0.0292358-1.4428711  c1.1716919,0.3397827,2.0209961,0.9041138,2.4951782,1.7075195C60.3232422,44.9355469,59.9326172,46.6103516,59.8017578,47.0717773z  "/><path d="M48.1806641,15.8696289c4.0400391,0,7.4765625,3.0170898,7.9921875,7.0180664  c0.0488281,0.3779297,0.3720703,0.6538086,0.7431641,0.6538086c0.0322266,0,0.0644531-0.0019531,0.0966797-0.0063477  c0.4111328-0.0527344,0.7011719-0.4287109,0.6484375-0.8398438c-0.6132813-4.7460938-4.6884766-8.3256836-9.4804688-8.3256836  c-4.5419922,0-8.484375,3.2275391-9.3740234,7.6748047c-0.0810547,0.40625,0.1816406,0.8012695,0.5878906,0.8823242  c0.4052734,0.0805664,0.8007813-0.1821289,0.8828125-0.5883789C41.0273438,18.590332,44.3505859,15.8696289,48.1806641,15.8696289z"/><path d="M39.8027344,26.7612305c-0.3798828,0.1650391-0.5527344,0.6069336-0.3876953,0.9868164  c0.3222656,0.7397461,0.7392578,1.4389648,1.2412109,2.0776367c0.1474609,0.1884766,0.3681641,0.2871094,0.5908203,0.2871094  c0.1611328,0,0.3251953-0.0522461,0.4619141-0.1601563c0.3261719-0.2558594,0.3828125-0.7270508,0.1269531-1.0527344  c-0.4228516-0.5385742-0.7744141-1.1274414-1.0458984-1.7504883C40.625,26.7695313,40.1826172,26.5976563,39.8027344,26.7612305z"/><path d="M28.4960938,41.3696289c-0.2919922-0.2919922-0.7666016-0.293457-1.0605469-0.0004883  c-0.2929688,0.2929688-0.2929688,0.7680664,0,1.0610352l1.2236328,1.2246094  c0.1464844,0.1464844,0.3378906,0.2197266,0.5302734,0.2197266c0.1914063,0,0.3837891-0.0732422,0.5302734-0.2192383  c0.2929688-0.2929688,0.2929688-0.7680664,0-1.0610352L28.4960938,41.3696289z"/><path d="M26.2060547,39.0805664l-1.2529297-1.2529297c-0.2929688-0.2929688-0.7675781-0.2929688-1.0605469,0  s-0.2929688,0.7675781,0,1.0605469l1.2529297,1.2529297c0.1464844,0.1464844,0.3378906,0.2197266,0.5302734,0.2197266  s0.3837891-0.0732422,0.5302734-0.2197266C26.4990234,39.8481445,26.4990234,39.3735352,26.2060547,39.0805664z"/><path d="M29.7197266,37.8271484c-0.2939453-0.2929688-0.7685547-0.2915039-1.0605469,0.0004883l-1.2236328,1.2246094  c-0.2929688,0.2929688-0.2929688,0.7680664,0,1.0610352c0.1464844,0.1459961,0.3388672,0.2192383,0.5302734,0.2192383  c0.1923828,0,0.3837891-0.0732422,0.5302734-0.2197266l1.2236328-1.2246094  C30.0126953,38.5952148,30.0126953,38.1201172,29.7197266,37.8271484z"/><path d="M25.1455078,41.3413086l-1.2529297,1.2529297c-0.2929688,0.2929688-0.2929688,0.7675781,0,1.0605469  c0.1464844,0.1464844,0.3378906,0.2197266,0.5302734,0.2197266s0.3837891-0.0732422,0.5302734-0.2197266l1.2529297-1.2529297  c0.2929688-0.2929688,0.2929688-0.7675781,0-1.0605469S25.4384766,41.0483398,25.1455078,41.3413086z"/><path d="M36.1279297,15.7485352c-0.2929688-0.2929688-0.7675781-0.2929688-1.0605469,0s-0.2929688,0.7680664,0,1.0605469  l1.2246094,1.2241211c0.1464844,0.1464844,0.3378906,0.2197266,0.5302734,0.2197266s0.3837891-0.0732422,0.5302734-0.2197266  c0.2929688-0.2929688,0.2929688-0.7680664,0-1.0605469L36.1279297,15.7485352z"/><path d="M32.5859375,12.2060547c-0.2929688-0.2929688-0.7675781-0.2929688-1.0605469,0s-0.2929688,0.7675781,0,1.0605469  l1.2529297,1.2529297c0.1464844,0.1464844,0.3378906,0.2197266,0.5302734,0.2197266s0.3837891-0.0732422,0.5302734-0.2197266  c0.2929688-0.2929688,0.2929688-0.7675781,0-1.0605469L32.5859375,12.2060547z"/><path d="M37.3525391,12.2060547c-0.2929688-0.2929688-0.7675781-0.2929688-1.0605469,0l-1.2246094,1.2246094  c-0.2929688,0.2929688-0.2929688,0.7675781,0,1.0605469c0.1464844,0.1464844,0.3378906,0.2197266,0.5302734,0.2197266  s0.3837891-0.0732422,0.5302734-0.2197266l1.2246094-1.2246094C37.6455078,12.9736328,37.6455078,12.4990234,37.3525391,12.2060547z  "/><path d="M32.7783203,15.7202148l-1.2529297,1.2524414c-0.2929688,0.2924805-0.2929688,0.7675781,0,1.0605469  c0.1464844,0.1464844,0.3378906,0.2197266,0.5302734,0.2197266c0.1914063,0,0.3837891-0.0732422,0.5302734-0.2197266  l1.2529297-1.2524414c0.2929688-0.2924805,0.2929688-0.7675781,0-1.0605469  C33.546875,15.4277344,33.0722656,15.4267578,32.7783203,15.7202148z"/><path d="M65.5683594,20.8691406l1.2236328,1.2241211c0.1464844,0.1464844,0.3378906,0.2197266,0.5302734,0.2197266  c0.1914063,0,0.3837891-0.0732422,0.5302734-0.2197266c0.2929688-0.2924805,0.2929688-0.7675781,0-1.0605469l-1.2236328-1.2241211  c-0.2919922-0.2919922-0.7666016-0.2939453-1.0605469,0C65.2753906,20.1010742,65.2753906,20.5761719,65.5683594,20.8691406z"/><path d="M63.2783203,18.5795898c0.1464844,0.1464844,0.3378906,0.2197266,0.5302734,0.2197266  s0.3837891-0.0732422,0.5302734-0.2197266c0.2929688-0.2929688,0.2929688-0.7675781,0-1.0605469l-1.2529297-1.2529297  c-0.2929688-0.2929688-0.7675781-0.2929688-1.0605469,0s-0.2929688,0.7675781,0,1.0605469L63.2783203,18.5795898z"/><path d="M66.0986328,18.7709961c0.1923828,0,0.3837891-0.0732422,0.5302734-0.2197266l1.2236328-1.2246094  c0.2929688-0.2929688,0.2929688-0.7680664,0-1.0610352c-0.2929688-0.2924805-0.7675781-0.2919922-1.0605469,0.0004883  l-1.2236328,1.2246094c-0.2929688,0.2929688-0.2929688,0.7680664,0,1.0610352  C65.7148438,18.6977539,65.9072266,18.7709961,66.0986328,18.7709961z"/><path d="M62.0253906,22.0932617c0.1464844,0.1464844,0.3378906,0.2197266,0.5302734,0.2197266  c0.1914063,0,0.3837891-0.0732422,0.5302734-0.2197266l1.2529297-1.2524414c0.2929688-0.2924805,0.2929688-0.7675781,0-1.0605469  c-0.2929688-0.2924805-0.7675781-0.293457-1.0605469,0l-1.2529297,1.2524414  C61.7324219,21.3251953,61.7324219,21.800293,62.0253906,22.0932617z"/><path d="M61.4160156,49.4838867c-0.4140625,0-0.75,0.3359375-0.75,0.75v23.6870117c0,0.4140625,0.3359375,0.75,0.75,0.75  s0.75-0.3359375,0.75-0.75V50.2338867C62.1660156,49.8198242,61.8300781,49.4838867,61.4160156,49.4838867z"/><path d="M82.9560547,36.6499023c-0.3740234-0.1787109-0.8222656-0.0146484-0.9970703,0.3598633L58.5244141,86.9448242  c-0.1757813,0.375-0.0146484,0.8217773,0.3603516,0.9975586c0.1025391,0.0483398,0.2109375,0.0712891,0.3173828,0.0712891  c0.2822266,0,0.5527344-0.1591797,0.6796875-0.4311523l23.4345703-49.9350586  C83.4921875,37.2724609,83.3310547,36.8256836,82.9560547,36.6499023z"/><path d="M31.0419922,69.3857422L6.9189453,86.6538086c-0.3369141,0.2412109-0.4140625,0.7094727-0.1728516,1.0463867  c0.1455078,0.2045898,0.3759766,0.3134766,0.6103516,0.3134766c0.1503906,0,0.3037109-0.0454102,0.4355469-0.1401367  l24.1230469-17.2680664c0.3369141-0.2412109,0.4140625-0.7094727,0.1728516-1.0463867  C31.8486328,69.2231445,31.3798828,69.1430664,31.0419922,69.3857422z"/><path d="M66.5888672,45.4829102c0.1513672,0,0.3046875-0.0458984,0.4375-0.1411133l10.0703125-7.246582  c0.3359375-0.2421875,0.4121094-0.7109375,0.1699219-1.046875c-0.2412109-0.3364258-0.7089844-0.4125977-1.046875-0.1708984  l-10.0703125,7.246582c-0.3359375,0.2421875-0.4121094,0.7109375-0.1699219,1.046875  C66.1259766,45.3745117,66.3554688,45.4829102,66.5888672,45.4829102z"/><path d="M92.5722656,35.7055664h-3.6845703c-0.4140625,0-0.75,0.3359375-0.75,0.75s0.3359375,0.75,0.75,0.75h3.6845703  c0.4140625,0,0.75-0.3359375,0.75-0.75S92.9863281,35.7055664,92.5722656,35.7055664z"/><path d="M78.7949219,13.3486328V27.394043c0,0.4140625,0.3359375,0.75,0.75,0.75s0.75-0.3359375,0.75-0.75V13.3486328  c0-0.4140625-0.3359375-0.75-0.75-0.75S78.7949219,12.9345703,78.7949219,13.3486328z"/><path d="M74.8242188,29.4091797c0.1269531,0,0.2558594-0.0322266,0.3730469-0.1000977  c0.359375-0.2070313,0.4824219-0.6655273,0.2753906-1.0244141l-5.0058594-8.6860352  c-0.2060547-0.3583984-0.6660156-0.4814453-1.0234375-0.2753906c-0.359375,0.2070313-0.4824219,0.6655273-0.2753906,1.0244141  l5.0058594,8.6860352C74.3125,29.2744141,74.5644531,29.4091797,74.8242188,29.4091797z"/><path d="M64.5644531,29.0551758l6.4267578,3.7104492c0.1181641,0.0683594,0.2470703,0.1005859,0.3740234,0.1005859  c0.2597656,0,0.5117188-0.1342773,0.6503906-0.375c0.2070313-0.3588867,0.0839844-0.8173828-0.2744141-1.0244141  l-6.4267578-3.7104492c-0.359375-0.2089844-0.8183594-0.0839844-1.0244141,0.2744141  C64.0830078,28.3896484,64.2060547,28.8481445,64.5644531,29.0551758z"/><path d="M65.6816406,37.5883789h5.0302734c0.4140625,0,0.75-0.3359375,0.75-0.75s-0.3359375-0.75-0.75-0.75h-5.0302734  c-0.4140625,0-0.75,0.3359375-0.75,0.75S65.2675781,37.5883789,65.6816406,37.5883789z"/><path d="M92.2802734,28.7285156l-4.9199219,2.7319336c-0.3623047,0.2011719-0.4921875,0.6577148-0.2910156,1.0200195  c0.1367188,0.246582,0.3925781,0.3857422,0.65625,0.3857422c0.1230469,0,0.2480469-0.0302734,0.3632813-0.0942383  l4.9199219-2.7319336c0.3623047-0.2011719,0.4921875-0.6577148,0.2910156-1.0200195  C93.0996094,28.6582031,92.6425781,28.5273438,92.2802734,28.7285156z"/><path d="M89.2558594,19.8081055c-0.3623047-0.203125-0.8183594-0.0751953-1.0214844,0.2851563l-4.6201172,8.1977539  c-0.203125,0.3608398-0.0761719,0.8183594,0.2851563,1.0214844c0.1162109,0.0654297,0.2431641,0.0966797,0.3671875,0.0966797  c0.2626953,0,0.5166016-0.137207,0.6542969-0.3818359l4.6201172-8.1977539  C89.7441406,20.46875,89.6171875,20.0112305,89.2558594,19.8081055z"/><path d="M68.9365234,27.4794922l3.515625,3.3261719c0.1455078,0.137207,0.3300781,0.2050781,0.515625,0.2050781  c0.1992188,0,0.3974609-0.0786133,0.5449219-0.234375c0.2841797-0.3012695,0.2714844-0.7758789-0.0292969-1.0605469  l-3.515625-3.3261719c-0.3007813-0.2841797-0.7753906-0.2714844-1.0605469,0.0292969  C68.6230469,26.7202148,68.6357422,27.1948242,68.9365234,27.4794922z"/><path d="M68.3261719,33.1567383c-0.3984375-0.0922852-0.8066406,0.15625-0.8994141,0.5610352  c-0.09375,0.4033203,0.1572266,0.8066406,0.5615234,0.8999023l1.2949219,0.300293  C69.3398438,34.9311523,69.3964844,34.9375,69.453125,34.9375c0.3408203,0,0.6494141-0.2338867,0.7294922-0.5805664  c0.09375-0.4033203-0.1572266-0.8066406-0.5615234-0.8999023L68.3261719,33.1567383z"/><path d="M77.8222656,27.6923828l-1.8681641-6.3413086c-0.1171875-0.3974609-0.5380859-0.625-0.9316406-0.5073242  c-0.3974609,0.1166992-0.625,0.5336914-0.5078125,0.9311523l1.8681641,6.3413086  c0.0966797,0.3266602,0.3955078,0.5380859,0.7197266,0.5380859c0.0703125,0,0.1416016-0.0097656,0.2119141-0.0307617  C77.7119141,28.5068359,77.9394531,28.0898438,77.8222656,27.6923828z"/><path d="M83.3759766,22.96875c-0.3935547-0.1254883-0.8164063,0.0927734-0.9423828,0.4873047l-1.34375,4.2207031  c-0.125,0.3945313,0.0927734,0.8164063,0.4873047,0.9423828c0.0751953,0.0239258,0.1523438,0.0351563,0.2275391,0.0351563  c0.3183594,0,0.6132813-0.2036133,0.7148438-0.5224609l1.34375-4.2207031  C83.9882813,23.5166016,83.7705078,23.0947266,83.3759766,22.96875z"/><path d="M90.2148438,26.4213867c-0.2832031-0.3022461-0.7568359-0.3164063-1.0605469-0.0336914l-3.5449219,3.3261719  c-0.3017578,0.2832031-0.3164063,0.7578125-0.0332031,1.0600586c0.1474609,0.1572266,0.3466797,0.2368164,0.546875,0.2368164  c0.1845703,0,0.3681641-0.0673828,0.5136719-0.203125l3.5449219-3.3261719  C90.4833984,27.1982422,90.4980469,26.7236328,90.2148438,26.4213867z"/><path d="M88.8876953,34.953125c0.09375,0,0.1894531-0.0175781,0.28125-0.0546875l0.7802734-0.315918  c0.3837891-0.1557617,0.5693359-0.5927734,0.4140625-0.9765625c-0.1552734-0.3852539-0.5957031-0.5693359-0.9765625-0.4140625  l-0.7802734,0.315918c-0.3837891,0.1557617-0.5693359,0.5927734-0.4140625,0.9765625  C88.3105469,34.7763672,88.5917969,34.953125,88.8876953,34.953125z"/></g>
</g>
</g>
</svg>
