<svg xmlns="http://www.w3.org/2000/svg" viewBox="0 0 100 100" width="100%" height="100%" fill="currentColor"> 
  <g transform="translate(8.9180 8.3886) scale(1.027265)"><path d="M 39.680239 7.3936905 C 39.525336 7.4009458 39.380011 7.4173476 39.247616 7.438383 C 38.718034 7.522525 38.422669 7.653315 38.244716 7.742292 A 1.3731373 1.3731373 0 0 0 38.205386 7.7637444 L 34.805181 9.5979248 L 32.263071 9.4370318 L 32.268434 9.4388195 C 31.554206 9.3912045 30.869932 9.7628207 30.518276 10.380937 L 28.258623 14.349632 L 22.005248 18.139556 L 13.851547 18.761676 C 13.541919 18.785356 13.241318 18.885542 12.979149 19.054859 A 1.3731373 1.3731373 0 0 0 12.977362 19.056646 L 4.8308121 24.326786 A 1.3731373 1.3731373 0 0 0 4.825449 24.328574 C 4.6260015 24.458571 4.4499561 24.627606 4.3070159 24.834493 C 2.3592373 27.65083 2.3491774 31.101581 2.7964093 33.935675 C 3.204035 36.518786 3.9750126 38.509964 4.3463453 39.40425 C 3.9146701 41.006379 3.8919411 42.730131 4.4303672 44.395508 L 4.4267918 44.395508 C 5.4996719 47.721436 8.2929561 50.176931 11.506084 50.176931 C 12.117356 50.176931 12.725359 50.083557 13.309874 49.894474 C 14.840312 49.400498 15.946593 48.25079 16.697566 46.900076 L 17.738007 46.440637 L 17.832755 46.46209 L 16.195222 49.578051 A 1.3731373 1.3731373 0 0 0 16.193434 49.578051 C 15.921626 50.096299 15.908032 50.722872 16.164831 51.258489 L 17.237451 53.509204 A 1.3731373 1.3731373 0 0 0 17.237451 53.510992 C 17.453184 53.960741 17.842033 54.308905 18.315434 54.472774 C 18.414134 54.507004 18.509722 54.504412 18.60683 54.521042 L 20.010174 55.459585 C 20.323848 55.669932 20.689301 55.776008 21.052403 55.776008 C 21.341572 55.776008 21.620238 55.710236 21.874745 55.586512 A 1.3731373 1.3731373 0 0 0 21.881896 55.582936 L 23.156526 54.951878 L 27.194941 59.122582 C 27.558686 59.499746 28.055865 59.692859 28.541079 59.692859 C 28.987183 59.692859 29.443208 59.527785 29.790682 59.217331 L 29.715598 59.287051 L 30.407438 59.880567 L 29.336606 65.386684 A 1.3731373 1.3731373 0 0 0 29.336606 65.388472 C 29.207514 66.056526 29.499616 66.701924 30.008781 67.135055 C 29.490583 67.360117 28.932724 67.581704 28.442756 67.712482 C 27.519181 67.655962 26.564736 67.819819 25.938188 68.558064 A 1.3731373 1.3731373 0 0 0 25.934613 68.561639 C 25.347672 69.255973 25.28405 70.065358 25.328582 70.606768 C 25.370092 71.111482 25.474955 71.380078 25.552045 71.572126 C 25.916307 72.639207 26.875013 73.12141 27.684771 73.347313 C 28.503153 73.575623 29.357145 73.624406 30.182188 73.624406 C 31.185847 73.624406 32.135039 73.536154 32.772566 73.459938 A 1.3731373 1.3731373 0 0 0 32.845861 73.447424 C 32.756 73.467604 33.527037 73.428525 34.233117 73.461725 C 34.95386 73.495615 35.773735 73.555192 36.376569 73.608317 A 1.3731373 1.3731373 0 0 0 36.514222 73.61368 C 37.693536 73.59984 38.617092 72.876224 38.970522 72.265754 C 39.352281 71.606084 39.372757 70.948184 39.317336 70.351127 C 40.18973 70.470945 41.007622 70.664122 41.950618 70.663975 C 44.838061 70.663688 48.011556 69.991854 51.007107 68.066446 A 1.3731373 1.3731373 0 0 0 51.008895 68.064659 C 51.723586 67.602637 52.043112 66.692229 51.763304 65.881877 L 49.371362 58.879455 L 49.748566 58.45577 L 56.118142 68.659963 A 1.3731373 1.3731373 0 0 0 56.118142 68.661751 C 56.427841 69.15727 56.951573 69.484024 57.541151 69.535936 C 57.998259 69.576336 58.442511 69.596718 58.878351 69.596718 C 62.084857 69.596718 64.651634 68.470644 66.536859 66.868687 C 67.781406 65.811142 68.661645 64.563932 69.407905 63.296862 C 69.54013 63.570362 69.693024 63.865037 69.777959 64.0763 C 69.981463 65.133548 70.575775 65.959286 71.242085 66.416399 C 71.8898 66.860754 72.511987 67.016382 73.104869 67.002765 C 73.225316 67.01478 73.341404 67.020642 73.449895 67.020642 C 74.7513 67.020642 75.776077 66.232765 76.363846 65.417075 C 76.951616 64.601384 77.247239 63.72061 77.398925 62.971501 A 1.3731373 1.3731373 0 0 0 77.423953 62.767703 C 77.510706 61.073401 76.62513 59.743252 75.739939 58.904483 C 74.944904 58.15114 74.199494 57.785138 73.726989 57.558345 C 73.385445 57.162799 73.032294 56.793947 72.641855 56.500026 C 72.412596 56.327441 72.235743 56.224819 72.017947 56.078129 C 72.037407 55.942044 72.098262 55.646685 72.107332 55.557908 L 72.107332 55.556121 C 72.176082 54.890753 71.884999 54.23951 71.342197 53.847079 L 63.338663 48.058506 L 62.437662 44.488469 C 62.363938 44.1862 62.212113 43.902563 61.999676 43.67149 L 56.606184 37.720236 L 56.602609 37.718448 L 56.600821 37.716661 C 56.597721 37.713261 56.584415 37.696541 56.566855 37.677331 A 1.3731373 1.3731373 0 0 0 56.565067 37.675544 L 54.237482 35.111982 L 46.782772 25.361865 A 1.3731373 1.3731373 0 0 0 46.780984 25.360077 C 46.572381 25.088469 46.289344 24.873712 45.967581 24.750471 L 45.964005 24.750471 L 41.687826 23.109363 C 41.686326 22.944171 41.707585 22.78728 41.696765 22.619533 C 41.621645 21.456321 41.215504 20.432002 40.765373 19.453516 L 41.476878 16.609285 A 1.3731373 1.3731373 0 0 0 41.482241 16.58962 C 41.508271 16.479001 41.523959 16.366419 41.530509 16.253532 A 1.3731373 1.3731373 0 0 0 41.530509 16.23208 L 41.573414 15.227393 L 43.071506 14.928847 C 43.569182 14.830767 44.008488 14.530951 44.281779 14.108292 C 44.56191 13.676827 44.649577 13.150306 44.533845 12.660255 A 1.3731373 1.3731373 0 0 0 44.533845 12.658467 L 44.131612 10.974454 A 1.3731373 1.3731373 0 0 0 44.074406 10.792108 C 43.507123 9.3424321 42.593158 8.1718395 41.282018 7.6564824 C 40.700894 7.4278204 40.144948 7.3719246 39.680239 7.3936905 z M 35.913555 13.421815 L 37.894327 13.546954 L 37.796003 15.885266 L 37.7674 16.001467 C 37.035898 15.580724 36.254887 15.258927 35.416574 15.143371 L 35.765176 14.417564 L 35.765176 14.415777 C 35.91717 14.099223 35.962147 13.752787 35.913555 13.421815 z M 33.684293 13.841925 C 33.805791 13.849937 33.933721 13.882426 34.057922 13.942036 C 34.314771 14.067113 34.476444 14.306068 34.553115 14.573094 C 34.370834 14.646044 34.171818 14.67012 33.9739 14.628513 C 33.977058 14.509816 33.963539 14.390727 33.923845 14.270973 A 1.3731373 1.3731373 0 0 0 33.922057 14.26561 C 33.868187 14.105496 33.785361 13.965945 33.684293 13.841925 z M 28.192478 18.767039 C 28.163808 18.919578 28.214304 19.070479 28.226444 19.226478 C 28.114955 19.131008 28.026637 19.014682 27.89572 18.949384 L 28.192478 18.767039 z M 34.810544 18.842122 C 36.241779 18.842122 37.800783 20.447846 37.956896 22.860872 C 38.036236 24.08778 37.723009 25.228114 37.141705 26.055493 C 36.580916 26.854456 35.922132 27.217742 35.223503 27.263978 C 35.116768 27.270578 34.988396 27.264642 34.830209 27.246101 A 1.3731373 1.3731373 0 0 0 34.823058 27.246101 C 34.334238 27.187001 33.861147 26.970457 33.421501 26.582864 C 33.36859 26.536321 33.289944 26.464219 33.385747 26.550685 C 33.238718 26.41718 33.094515 26.261349 32.954911 26.082308 C 32.944728 26.069462 32.933828 26.056806 32.926308 26.046554 C 32.925176 26.044928 32.92373 26.044407 32.922732 26.042979 C 32.391139 25.343258 32.007927 24.364761 31.935922 23.250591 C 31.856582 22.023683 32.168022 20.88335 32.749326 20.055971 C 33.3111 19.255606 33.974691 18.892684 34.674679 18.847485 A 1.3731373 1.3731373 0 0 0 34.676466 18.845698 C 34.722126 18.842698 34.766438 18.842122 34.810544 18.842122 z M 28.373036 21.480768 C 28.357826 21.577898 28.356502 21.677776 28.344432 21.775738 L 28.153148 21.739984 C 28.245498 21.666834 28.298625 21.569619 28.373036 21.480768 z M 22.564798 21.854397 L 23.283453 24.816616 L 15.576678 26.100185 A 1.3731373 1.3731373 0 0 0 15.57489 26.100185 C 15.3229 26.142185 15.084094 26.233315 14.866961 26.373703 L 10.730223 29.037376 C 9.8748411 29.587264 9.6197187 30.767492 10.17246 31.624179 C 10.724014 32.481711 11.903348 32.72777 12.750324 32.190879 A 1.3731373 1.3731373 0 0 0 12.757475 32.187304 L 16.572427 29.731004 L 20.249726 29.119611 C 20.068335 29.925149 19.95211 30.770469 19.654422 31.48295 C 18.9518 32.083642 17.685294 32.655582 16.084385 33.011434 C 16.066326 33.014966 16.048552 33.018147 16.030754 33.02216 C 12.648397 33.763804 8.6642592 33.695521 6.661417 33.615677 C 6.278789 31.371745 6.2283359 28.915743 7.2656597 27.210347 L 14.61132 22.45864 L 22.564798 21.854397 z M 41.977434 27.231799 L 44.131612 28.057717 L 50.692472 36.640465 C 50.50834 37.219575 50.290521 37.728862 50.057839 38.210066 C 48.129937 38.074259 46.555774 37.772671 45.213171 37.344819 L 47.301205 35.145948 L 47.302993 35.14416 C 48.002356 34.406752 47.973762 33.199327 47.236848 32.498364 A 1.3731373 1.3731373 0 0 0 47.233272 32.494788 C 46.496759 31.799391 45.283248 31.82537 44.582113 32.569872 L 40.286269 37.094541 L 37.188185 39.111067 C 37.32492 39.017737 37.426244 38.935249 37.120252 39.150396 C 37.078831 39.179528 37.098437 39.167629 37.089862 39.173636 C 37.080376 39.179854 37.065527 39.19024 37.055895 39.196876 L 35.175235 40.421451 L 33.870214 37.688057 L 38.900802 34.67042 L 38.90259 34.668632 C 39.239489 34.466522 39.503006 34.163288 39.656999 33.810536 A 1.3731373 1.3731373 0 0 0 39.658787 33.805173 L 41.966708 28.468888 A 1.3731373 1.3731373 0 0 0 41.966708 28.4671 C 42.140739 28.063873 42.091213 27.632983 41.977434 27.231799 z M 40.477553 27.637607 C 40.454067 27.714015 40.421695 27.822199 40.418559 27.832466 C 40.422393 27.819719 40.451869 27.717305 40.475766 27.639395 L 40.477553 27.637607 z M 25.736178 28.207884 L 26.538855 28.207884 L 25.389364 28.973019 C 25.389341 28.973035 25.376152 28.982745 25.375062 28.983745 C 25.378962 28.981445 25.417947 28.963219 25.441207 28.949779 C 25.413567 28.966089 25.385415 28.981778 25.373275 28.989108 C 25.354805 29.005968 25.271886 29.081428 25.187354 29.15894 C 25.271514 29.08006 25.354166 29.000729 25.360761 28.994472 C 25.358161 28.996072 25.339358 29.005158 25.339308 29.005198 A 1.3731373 1.3731373 0 0 0 25.335733 29.010561 L 24.050377 29.929439 C 24.153384 29.452834 24.220569 28.953915 24.282778 28.449223 L 25.736178 28.207884 z M 32.465081 30.224409 C 32.6698 30.326277 32.868807 30.431453 33.083625 30.510441 C 33.299249 31.134134 33.719844 31.992679 34.326077 33.0454 L 30.598722 35.283601 L 27.236058 36.715549 L 29.007669 33.499476 L 32.465081 30.224409 z M 23.228034 32.648531 C 23.255494 32.695191 23.231728 32.754009 23.263788 32.798698 L 23.263788 32.800485 C 23.60516 33.275164 24.153448 33.515871 24.706462 33.542381 L 22.952729 36.724487 L 22.53977 36.688733 L 21.182905 36.32583 C 21.921861 35.250785 22.630644 34.155584 23.228034 32.648531 z M 28.14421 32.939926 C 28.132348 32.951261 28.119849 32.963226 28.106668 32.97568 A 1.3731373 1.3731373 0 0 0 28.106668 32.973892 L 28.14421 32.939926 z M 10.226091 38.201127 C 11.515807 38.201127 13.101393 39.415705 13.738922 41.390385 L 13.737134 41.390385 C 14.120506 42.578679 14.07274 43.757315 13.744285 44.647574 C 13.416488 45.536084 12.862661 46.102587 12.163958 46.3298 L 12.16217 46.3298 C 11.952109 46.39705 11.732769 46.433487 11.506084 46.433487 C 10.21503 46.433487 8.6289553 45.21839 7.9914659 43.24423 L 7.9932536 43.24423 C 7.6159073 42.074932 7.6422208 40.89496 8.0021921 39.949498 L 8.0021921 39.94771 C 8.3509016 39.034833 8.9023294 38.519655 9.5682175 38.304814 A 1.3731373 1.3731373 0 0 0 9.5700052 38.303026 C 9.7806438 38.234986 9.998747 38.201127 10.226091 38.201127 z M 18.710516 39.538327 L 21.061342 40.171173 C 21.627582 40.97229 22.527889 41.781428 24.325682 42.35038 L 24.263113 42.332503 L 25.335733 44.504558 C 25.263713 44.545018 25.172134 44.51429 25.10512 44.56534 A 1.3731373 1.3731373 0 0 0 25.096181 44.572491 L 22.915187 46.261867 L 20.916538 42.906354 C 20.394631 42.030552 19.222722 41.733474 18.345825 42.259207 C 18.192345 42.351317 18.163747 42.53947 18.047279 42.666802 L 17.990073 42.652501 A 1.3731373 1.3731373 0 0 0 17.98471 42.650713 C 17.89991 42.631083 17.816701 42.681733 17.730856 42.673953 C 17.698366 41.924612 17.561558 41.163584 17.332199 40.405362 C 17.609968 40.337592 17.901817 40.310606 18.131301 40.113967 L 18.133089 40.110391 C 18.197069 40.055681 18.517138 39.723754 18.710516 39.538327 z M 42.29922 40.253407 C 43.785834 40.916947 45.494893 41.361209 47.383439 41.644238 C 45.360419 43.1766 43.404423 43.404943 42.406482 43.437301 L 40.844032 41.200888 L 42.29922 40.253407 z M 52.970002 40.845136 L 52.896706 41.004241 C 52.911152 40.966808 52.923035 40.928644 52.941399 40.896979 C 52.949509 40.877259 52.960355 40.86171 52.970002 40.845136 z M 52.757266 41.254519 L 52.698272 41.340329 C 52.707184 41.3244 52.71538 41.303627 52.725087 41.290273 C 52.734764 41.274814 52.746159 41.266199 52.757266 41.254519 z M 31.905531 42.269933 L 32.711784 43.957522 L 32.711784 43.95931 L 32.713572 43.95931 C 32.745491 44.026928 32.781509 44.091567 32.820834 44.154169 L 31.578382 42.829483 L 31.490785 42.618535 L 31.905531 42.269933 z M 37.703043 43.246017 L 39.195772 45.378744 L 36.042269 47.591916 L 33.310663 44.676177 C 33.486976 44.803608 33.685157 44.90074 33.897029 44.960422 C 34.071088 45.009612 34.24221 45.03193 34.406524 45.03193 C 34.763751 45.03193 35.120459 44.928312 35.429088 44.726233 L 37.703043 43.246017 z M 52.258497 46.184996 C 52.923925 46.900309 53.770488 47.61109 55.052673 47.933367 C 55.41351 48.023917 55.783281 48.072808 56.153896 48.072808 C 56.321653 48.072808 56.473969 47.977867 56.640151 47.958395 L 56.659815 48.013814 L 56.829647 48.907664 C 56.948142 49.527139 57.395132 50.018198 57.959473 50.223411 C 57.515432 50.621272 57.276492 51.237623 57.39456 51.855581 L 57.959473 54.803499 C 58.117376 55.626246 58.852529 56.221145 59.675665 56.221145 C 59.772585 56.221145 59.879539 56.212479 60.008178 56.187179 C 60.111619 56.166994 60.211313 56.137284 60.306724 56.099581 C 60.310973 56.716703 60.636347 57.322768 61.200574 57.635216 A 1.3731373 1.3731373 0 0 0 61.207724 57.637004 L 63.826705 59.076102 C 64.093041 59.22507 64.398191 59.297777 64.67765 59.297777 C 65.294921 59.297777 65.889087 58.966673 66.204346 58.393201 C 66.66102 57.563708 66.347417 56.474945 65.519657 56.019135 L 63.083022 54.67836 C 63.728625 54.512339 64.102612 53.977531 64.28972 53.369763 L 68.179755 56.183603 C 67.960494 57.389329 67.46468 59.553811 66.172168 61.637877 C 64.730113 63.963068 62.566029 65.822009 58.737123 65.779978 L 52.272799 55.427406 L 51.087554 48.845094 A 1.3731373 1.3731373 0 0 0 51.085766 48.841519 C 51.007946 48.417332 50.73466 48.108908 50.438619 47.843982 C 51.076225 47.403681 51.662988 46.776019 52.258497 46.184996 z M 29.710235 46.313711 L 32.94776 49.76576 L 32.910219 49.790788 C 32.509894 50.069914 32.239977 50.496203 32.146871 50.961731 A 1.3731373 1.3731373 0 0 0 32.145083 50.968882 L 31.891229 52.275691 L 28.630464 55.218245 L 26.538855 53.058703 C 26.83264 52.722821 27.046562 52.325928 27.046562 51.86452 L 27.046562 50.800838 C 27.324641 50.641833 27.567185 50.412216 27.736614 50.121512 L 29.694146 46.771362 C 29.776326 46.630838 29.667885 46.46683 29.710235 46.313711 z M 41.208723 48.14074 C 41.330335 48.300572 41.480303 48.445738 41.657435 48.564425 C 41.887878 48.719313 43.219788 49.569113 45.356187 49.569113 C 45.976424 49.569113 46.658333 49.493225 47.381651 49.304533 A 1.3731373 1.3731373 0 0 0 47.383439 49.304533 C 47.408049 49.298133 47.428609 49.278995 47.453159 49.272355 C 47.456259 49.357245 47.385926 49.424572 47.401316 49.510119 L 48.293378 54.458473 L 47.853604 54.951878 C 47.462692 54.02182 46.38042 53.563861 45.454511 53.922163 A 1.3731373 1.3731373 0 0 0 45.441997 53.927526 C 44.496835 54.304873 44.018597 55.410265 44.394404 56.35701 A 1.3731373 1.3731373 0 0 0 44.394404 56.358798 L 45.490265 59.110069 L 47.694499 65.554728 C 44.608588 67.063891 41.405631 67.130694 38.646948 66.588018 C 36.186287 66.103967 34.384551 65.274072 33.285636 64.714509 L 35.677578 52.425858 L 41.407157 48.401745 L 41.208723 48.14074 z M 59.872312 49.63347 L 59.970636 50.021401 C 59.869076 49.962711 59.761979 49.914636 59.650638 49.876597 C 59.73044 49.800811 59.803944 49.719081 59.872312 49.63347 z M 20.276541 49.85872 L 20.281905 49.942742 L 20.217547 49.974921 L 20.276541 49.85872 z M 61.41331 54.295792 C 61.469179 54.342785 61.527666 54.386088 61.588505 54.426294 C 61.580021 54.428625 61.570137 54.430991 61.561689 54.433445 C 61.513902 54.447325 61.466958 54.46396 61.420461 54.481713 C 61.421079 54.420211 61.419535 54.35792 61.41331 54.295792 z M 28.920072 55.084168 C 28.835724 55.141867 28.750939 55.204871 28.664431 55.255787 L 28.637615 55.227184 L 28.920072 55.084168 z M 72.563196 61.17665 C 72.689161 61.25605 72.802457 61.313741 72.927887 61.410839 C 73.420357 61.792069 73.657335 62.177937 73.664419 62.465582 C 73.661619 62.474082 73.660268 62.478194 73.657268 62.487034 C 73.605468 62.639674 73.525565 62.841625 73.433806 63.005467 C 73.414196 63.040477 73.407246 63.038067 73.387326 63.068037 A 1.3731373 1.3731373 0 0 0 73.380175 63.046584 C 73.313281 62.846319 73.04235 62.061934 72.563196 61.17665 z M 73.011909 65.992714 L 73.013696 65.992714 L 73.015484 65.992714 C 73.040024 65.99355 73.169904 66.00526 73.128109 66.00344 L 73.011909 65.994502 L 73.011909 65.992714 z M 33.846973 69.037168 C 34.281963 69.20363 34.73119 69.365155 35.22529 69.523422 C 35.2634 69.610452 35.293831 69.686696 35.328977 69.775488 C 35.091064 69.758618 35.03277 69.749411 34.765851 69.734371 C 34.186386 69.701731 33.661507 69.736102 33.124743 69.748672 C 33.399125 69.56716 33.601842 69.276164 33.846973 69.037168 z M 26.481649 71.223525 L 26.483436 71.223525 L 26.485224 71.225313 L 26.485224 71.2271 L 26.487012 71.228888 C 26.491411 71.240815 26.491749 71.252593 26.494163 71.264642 L 26.481649 71.223525 z "/></g>
</svg>
