<?xml version="1.0" encoding="UTF-8" standalone="no"?>
<svg
   width="177.83473"
   height="170"
   viewBox="0 0 1778.3473 1700"
   version="1.1"
   id="svg2"
   xmlns="http://www.w3.org/2000/svg"
   xmlns:svg="http://www.w3.org/2000/svg">
  <defs
     id="defs2" />
  <g
     id="l7FepJA2HlIKjbTaOfBKIiU"
     fill="#ff9933"
     transform="translate(-611.65269,-170)">
    <g
       id="g2">
      <path
         id="pAACLOnr9"
         d="m 870,1835 v -35 h 30 30 v -174 -175 l -55,16 c -31,9 -58,13 -61,10 -3,-3 -7,-20 -7,-38 l -2,-33 60,-17 c 35,-9 61,-22 63,-30 4,-20 82,-42 82,-23 0,9 8,10 28,5 20,-5 28,-15 30,-34 4,-35 -1,-34 -139,4 -61,17 -115,27 -120,22 -4,-4 -9,-21 -11,-37 l -3,-28 175,-49 c 96,-27 176,-49 178,-49 1,0 2,32 2,70 0,39 1,70 3,70 2,0 41,-11 88,-25 46,-13 90,-25 97,-25 7,0 12,14 12,38 v 37 l -102,28 c -57,16 -133,37 -170,48 l -68,20 v 219 220 h -70 -70 z" />
      <path
         id="p1AwsLrXpS"
         d="m 1070,1661 c 0,-116 3,-212 8,-214 4,-3 22,-8 40,-12 l 32,-7 v 221 221 h -40 -40 z" />
      <path
         id="pWuIj6C5c"
         d="m 1340,1835 v -35 h 25 25 v -278 -279 l 55,-15 55,-15 55,15 55,15 v 279 278 h 25 25 v 35 35 h -65 -65 v -285 -285 h -30 -30 v 285 285 h -65 -65 z" />
      <path
         id="p1F6cuHqs0"
         d="m 1850,1650 c 0,-238 -2,-232 54,-210 l 26,10 v 210 210 h -40 -40 z" />
      <path
         id="pvoyvKgx2"
         d="m 1988,1648 -3,-221 -167,-46 -168,-46 v -37 c 0,-21 5,-38 10,-38 9,0 124,30 171,45 l 19,6 v -70 c 0,-39 1,-71 3,-71 1,0 81,22 177,49 l 175,49 -3,28 c -2,16 -7,33 -11,37 -5,5 -59,-5 -120,-22 -138,-38 -143,-39 -139,-4 2,19 10,29 31,34 19,5 27,4 27,-5 0,-10 9,-11 40,-3 22,6 40,17 40,24 0,7 28,21 63,31 l 62,19 -2,32 c 0,18 -3,35 -6,37 -3,3 -30,-1 -61,-9 l -56,-15 v 174 174 h 30 30 v 35 35 h -70 -70 z" />
      <path
         id="p10VNjL5vf"
         d="m 1192,1199 3,-42 153,-42 153,-43 152,43 152,42 3,41 3,41 -68,-19 c -37,-11 -107,-30 -155,-43 l -87,-24 -133,37 c -74,20 -144,41 -156,44 l -23,8 z" />
      <path
         id="pRkQ6sj1d"
         d="m 677,1036 c -52,-19 -68,-35 -65,-65 2,-21 8,-25 28,-23 24,2 71,3 204,2 70,0 106,19 106,56 0,31 -21,39 -56,21 l -28,-14 -40,18 c -48,22 -96,23 -149,5 z" />
      <path
         id="pDmVo2rkS"
         d="m 1923,988 c -24,-6 -35,-16 -39,-36 -4,-15 -15,-38 -24,-52 -10,-14 -27,-43 -38,-65 -27,-54 -107,-135 -160,-163 -86,-44 -315,-17 -383,45 -14,12 -29,23 -33,23 -10,0 -56,48 -56,57 0,3 -12,22 -26,40 -17,22 -29,53 -33,86 l -6,52 -38,9 c -23,6 -41,6 -47,0 -16,-17 18,-141 54,-197 47,-70 53,-77 111,-118 60,-42 111,-64 184,-79 30,-6 60,-15 66,-20 23,-19 230,14 280,45 59,36 133,123 169,197 38,79 69,175 58,181 -4,2 -22,0 -39,-5 z" />
      <path
         id="p16CCKk7d8"
         d="m 2324,965 c -5,-12 -24,-15 -84,-15 h -78 l -26,-31 c -14,-17 -26,-40 -26,-51 v -21 l 48,8 c 26,3 77,10 113,13 85,9 119,33 119,85 v 27 h -30 c -18,0 -33,-6 -36,-15 z" />
      <path
         id="p5iyLG4gS"
         d="m 1240,914 c 12,-52 57,-111 115,-150 l 52,-34 h 69 c 98,0 191,17 224,41 30,23 90,130 90,160 0,15 -8,19 -34,19 -37,0 -51,-12 -61,-50 -12,-49 -42,-72 -111,-86 -97,-21 -136,-9 -202,61 -49,52 -89,75 -133,75 -14,0 -16,-6 -9,-36 z" />
      <path
         id="pvFImyXDn"
         d="m 1498,893 c 6,-2 18,-2 25,0 6,3 1,5 -13,5 -14,0 -19,-2 -12,-5 z" />
      <path
         id="p1AA96coGd"
         d="m 1025,610 c -19,-36 -43,-50 -87,-50 -48,0 -108,-43 -108,-77 0,-47 43,-55 110,-19 25,13 58,26 73,30 16,4 45,24 65,45 20,21 43,40 50,42 10,3 11,11 3,32 l -11,27 h -39 -40 z" />
      <path
         id="p10eejDqeS"
         d="m 1890,581 c -19,-36 -11,-65 28,-102 20,-20 46,-51 57,-69 11,-18 32,-42 47,-53 l 27,-20 41,39 c 54,52 52,110 -3,82 -26,-13 -74,28 -83,70 -4,23 -17,40 -38,53 -40,24 -63,24 -76,0 z" />
      <path
         id="pe16J3giQ"
         d="m 1447,452 c -21,-23 -23,-88 -3,-95 7,-3 17,-22 20,-41 6,-30 2,-42 -20,-71 l -27,-35 18,-20 c 10,-11 25,-20 33,-20 21,0 83,71 77,89 -2,9 -6,54 -7,101 -1,50 -7,90 -14,98 -18,18 -58,15 -77,-6 z" />
    </g>
  </g>
</svg>
