<?xml version="1.0" encoding="UTF-8" standalone="no"?>
<svg
   width="300"
   height="240"
   viewBox="0 0 3000 2400"
   version="1.1"
   id="svg2"
   sodipodi:docname="namelogo.svg"
   inkscape:version="1.3.2 (091e20ef0f, 2023-11-25, custom)"
   inkscape:export-filename="namelogo.png"
   inkscape:export-xdpi="96"
   inkscape:export-ydpi="96"
   xmlns:inkscape="http://www.inkscape.org/namespaces/inkscape"
   xmlns:sodipodi="http://sodipodi.sourceforge.net/DTD/sodipodi-0.dtd"
   xmlns="http://www.w3.org/2000/svg"
   xmlns:svg="http://www.w3.org/2000/svg">
  <defs
     id="defs2" />
  <sodipodi:namedview
     id="namedview2"
     pagecolor="#ffffff"
     bordercolor="#000000"
     borderopacity="0.25"
     inkscape:showpageshadow="2"
     inkscape:pageopacity="0.0"
     inkscape:pagecheckerboard="0"
     inkscape:deskcolor="#d1d1d1"
     inkscape:zoom="2.1625642"
     inkscape:cx="84.159349"
     inkscape:cy="107.04884"
     inkscape:window-width="1920"
     inkscape:window-height="1011"
     inkscape:window-x="1080"
     inkscape:window-y="1112"
     inkscape:window-maximized="1"
     inkscape:current-layer="svg2"
     showguides="true">
    <sodipodi:guide
       position="2129.9837,533.98684"
       orientation="1,0"
       id="guide1"
       inkscape:locked="false" />
    <sodipodi:guide
       position="870.00083,540.71489"
       orientation="1,0"
       id="guide2"
       inkscape:locked="false" />
    <sodipodi:guide
       position="1509.9951,1511.4556"
       orientation="-0.2478425,0.96880034"
       id="guide3"
       inkscape:locked="false" />
    <sodipodi:guide
       position="1509.9945,1511.571"
       orientation="0.2470665,0.96899853"
       id="guide4"
       inkscape:locked="false" />
    <sodipodi:guide
       position="1470.0379,1085.5791"
       orientation="1,0"
       id="guide5"
       inkscape:locked="false" />
    <sodipodi:guide
       position="1375.5381,1375.3645"
       orientation="0,-1"
       id="guide7"
       inkscape:locked="false" />
    <sodipodi:guide
       position="1499.9907,1190.1844"
       orientation="1,0"
       id="guide6"
       inkscape:locked="false" />
    <sodipodi:guide
       position="1530.0094,1088.3084"
       orientation="1,0"
       id="guide8"
       inkscape:locked="false" />
  </sodipodi:namedview>
  <g
     id="l7FepJA2HlIKjbTaOfBKIiU"
     fill="rgb(255,153,51)"
     style="transform: none;">
    <g
       style="transform: none;"
       id="g2">
      <path
         id="pAACLOnr9"
         d="M 870 1835 l 0 -35 30 0 30 0 0 -174 0 -175 -55 16 c -31 9 -58 13 -61 10 -3 -3 -7 -20 -7 -38 l -2 -33 60 -17 c 35 -9 61 -22 63 -30 4 -20 82 -42 82 -23 0 9 8 10 28 5 20 -5 28 -15 30 -34 4 -35 -1 -34 -139 4 -61 17 -115 27 -120 22 -4 -4 -9 -21 -11 -37 l -3 -28 175 -49 c 96 -27 176 -49 178 -49 1 0 2 32 2 70 0 39 1 70 3 70 2 0 41 -11 88 -25 46 -13 90 -25 97 -25 7 0 12 14 12 38 l 0 37 -102 28 c -57 16 -133 37 -170 48 l -68 20 0 219 0 220 -70 0 -70 0 0 -35 z " />
      <path
         id="p1AwsLrXpS"
         d="M 1070 1661 c 0 -116 3 -212 8 -214 4 -3 22 -8 40 -12 l 32 -7 0 221 0 221 -40 0 -40 0 0 -209 z " />
      <path
         id="pWuIj6C5c"
         d="M 1340 1835 l 0 -35 25 0 25 0 0 -278 0 -279 55 -15 55 -15 55 15 55 15 0 279 0 278 25 0 25 0 0 35 0 35 -65 0 -65 0 0 -285 0 -285 -30 0 -30 0 0 285 0 285 -65 0 -65 0 0 -35 z " />
      <path
         id="p1F6cuHqs0"
         d="M 1850 1650 c 0 -238 -2 -232 54 -210 l 26 10 0 210 0 210 -40 0 -40 0 0 -220 z " />
      <path
         id="pvoyvKgx2"
         d="M 1988 1648 l -3 -221 -167 -46 -168 -46 0 -37 c 0 -21 5 -38 10 -38 9 0 124 30 171 45 l 19 6 0 -70 c 0 -39 1 -71 3 -71 1 0 81 22 177 49 l 175 49 -3 28 c -2 16 -7 33 -11 37 -5 5 -59 -5 -120 -22 -138 -38 -143 -39 -139 -4 2 19 10 29 31 34 19 5 27 4 27 -5 0 -10 9 -11 40 -3 22 6 40 17 40 24 0 7 28 21 63 31 l 62 19 -2 32 c 0 18 -3 35 -6 37 -3 3 -30 -1 -61 -9 l -56 -15 0 174 0 174 30 0 30 0 0 35 0 35 -70 0 -70 0 -2 -222 z " />
      <path
         id="p10VNjL5vf"
         d="M 1192 1199 l 3 -42 153 -42 153 -43 152 43 152 42 3 41 3 41 -68 -19 c -37 -11 -107 -30 -155 -43 l -87 -24 -133 37 c -74 20 -144 41 -156 44 l -23 8 3 -43 z " />
      <path
         id="pDmVo2rkS"
         d="m 1922.5795,993.66787 c -24,-6 -31.2905,-12.9453 -38.5795,-41.66787 -4,-15 -15,-38 -24,-52 -10,-14 -27,-43 -38,-65 -27,-54 -107,-135 -160,-163 -86,-44 -315,-17 -383,45 -14,12 -29,23 -33,23 -10,0 -56,48 -56,57 0,3 -12,22 -26,40 -17,22 -29,53 -33,86 l -7.4774,64.30224 -28.1227,5.93452 c -18.7131,8.42974 -54.6735,17.79734 -58.4469,14.53434 C 1020.953,990.7711 1058,843 1094,787 c 47,-70 53,-77 111,-118 60,-42 111,-64 184,-79 30,-6 60,-15 66,-20 23,-19 230,14 280,45 59,36 133,123 169,197 38,79 72.1664,179.60411 61.1664,185.60411 -4.2466,3.39829 -25.5869,1.06376 -42.5869,-3.93624 z"
         sodipodi:nodetypes="cccsccssccccccccccccc" />
      <path
         id="p16CCKk7d8"
         d="m 2263.5209,1054.7732 c -3.0157,-13.9695 -15.0583,-37.6981 -75.327,-37.6981 h -78.3494 l -26.1165,-31.1389 c -14.0627,-17.07615 -26.1164,-40.17917 -26.1164,-51.22844 V 913.6137 l 48.215,8.03583 c 26.1164,3.01344 77.3449,10.04479 113.5061,13.05823 85.3807,9.04031 119.533,33.14781 119.533,85.38084 0,0 6.6996,56.7489 6.2979,64.1452 -1.2303,22.6502 -38.014,7.7541 -38.014,7.7541 -26.1793,-5.3396 -41.6285,-17.3062 -43.6287,-37.2147 z"
         sodipodi:nodetypes="csccscccsssc"
         style="stroke-width:1.00448" />
      <path
         id="p16CCKk7d8-6"
         d="m 720.59485,876.95285 c 3.02283,13.08321 15.09414,35.30636 75.50652,35.30636 h 78.53607 l 26.1787,29.16327 c 14.09622,15.99277 26.1787,37.63005 26.1787,47.97827 v 19.75575 l -48.3299,-7.526 c -26.17871,-2.82224 -77.52923,-9.40749 -113.77663,-12.22975 -85.58421,-8.46672 -119.81789,-31.04475 -119.81789,-79.9638 0,0 -6.71555,-53.14855 -6.3129,-60.07558 1.23322,-21.21318 38.10461,-7.26213 38.10461,-7.26213 26.24173,5.00085 41.72773,16.20821 43.73272,34.85361 z"
         sodipodi:nodetypes="csccscccsssc"
         style="stroke-width:0.973251" />
      <path
         id="p16CCKk7d8-6-5"
         d="m 1552.8655,245.69859 c -14.5357,4.80444 -38.5,20.85247 -32.1758,89.54267 l 8.2214,89.29723 -30.366,32.8138 c -16.6795,17.6992 -39.9775,33.69872 -51.7249,34.78028 l -22.4269,2.06481 3.4842,-55.73875 c 0.4634,-30.06074 2.5635,-89.13567 1.9729,-130.64474 0.6523,-98.19604 22.6993,-139.48026 78.2327,-144.59311 0,0 59.6317,-13.19063 67.5374,-13.45678 24.2106,-0.81494 12.2331,42.56676 12.2331,42.56676 -2.93,30.36009 -14.0315,49.13936 -34.9881,53.36783 z"
         sodipodi:nodetypes="csccscccsssc"
         style="stroke-width:1.1104" />
      <path
         id="p5iyLG4gS"
         d="m 1237.9349,917.04961 c 11.9761,-52.63747 57.3372,-112.47138 115.9254,-152.12222 l 52.5307,-34.57248 69.8537,-0.24324 c 99.2125,-0.34546 193.4197,16.52126 226.9075,40.67962 30.4472,23.15748 98.5541,160.48776 98.6535,190.83115 -58.55,-13.54422 -15.5777,-4.7128 -41.3672,-9.97983 -36.7403,-7.50352 -51.6708,-11.95756 -61.9205,-50.35722 -12.3111,-49.51854 -42.7585,-72.67602 -112.6585,-86.59303 -98.2699,-20.89839 -137.7126,-8.62356 -204.2969,62.41029 -49.434,52.7679 -89.8527,76.17217 -134.3971,76.32726 -14.1732,0.0494 -16.2176,-6.01225 -9.2306,-36.3803 z"
         style="stroke-width:1.01192"
         sodipodi:nodetypes="cccsccscccsc" />
      <path
         id="pvFImyXDn"
         d="m 1464.7946,899.21816 c -2.1574,0.50131 -7.5284,1.6182 -10.3684,2.73278 -15.8552,6.22252 -18.785,5.9602 10.0886,-27.54842 23.8465,-27.67459 56.7421,-21.08396 87.123,1.20624 39.8151,29.21203 35.8007,32.8021 24.7384,29.6042 -12.9353,-3.73935 -16.5143,-5.34207 -23.6537,-6.24143 0,0 -42.3496,-11.85771 -42.6553,-11.75285 -0.306,0.1049 -26.3264,7.59693 -45.2726,11.99948 z"
         sodipodi:nodetypes="ssssssss"
         style="stroke-width:2.59991" />
      <path
         id="p1AA96coGd"
         d="m 865.75044,445.47971 c 19.0851,36.16119 43.1926,50.2239 87.38968,50.2239 48.21488,0 87.34408,35.97859 87.34408,70.13089 0,47.21052 -22.0532,62.46037 -89.35303,26.29912 -25.11198,-13.05823 -58.2598,-26.11646 -73.32698,-30.13438 -16.07167,-4.01792 -45.20163,-24.1075 -65.29122,-45.20157 -20.08958,-21.09406 -43.1926,-40.17916 -50.22395,-42.18812 -10.0448,-3.01344 -11.04927,-11.04922 -3.01344,-32.14328 l 20.71601,-47.29632 h 39.17469 40.17917 z"
         sodipodi:nodetypes="cssccscccccc"
         style="stroke-width:1.00448" />
      <path
         id="p10eejDqeS"
         d="m 1970.3828,607.38198 c -19.0851,-36.16125 -11.0493,-65.29114 28.1254,-102.45687 20.0896,-20.08958 46.2061,-51.22844 57.2553,-69.30906 11.0493,-18.08063 32.1434,-42.18813 47.2106,-53.2374 l 27.1209,-20.08958 41.1836,39.17469 c 54.2419,52.23291 52.233,110.4927 -3.0134,82.36729 -26.1164,-13.05823 -74.3314,28.12541 -83.3718,70.31354 -4.0179,23.10302 -17.0761,40.17916 -38.1702,53.23739 -40.1791,24.1075 -63.2822,24.1075 -76.3404,0 z"
         style="stroke-width:1.00448" />
    </g>
  </g>
  <path
     style="-inkscape-font-specification:PaperLang;fill:#ff9933;stroke-width:24.5205"
     d="m 896.16363,2040.0663 h 5.0286 l 0.28735,34.1945 q 19.53971,-34.3382 46.69415,-34.4818 13.79274,-0.1437 26.00505,9.0514 12.356,9.1952 20.11441,26.4361 7.75841,17.0973 7.90211,38.2174 0,17.8156 -5.60332,33.7635 -5.45963,15.8041 -14.79846,26.867 -9.19515,10.9193 -21.40747,17.3846 -12.21232,6.3217 -24.99933,6.4654 -20.1144,0.1437 -33.18877,-13.6491 l 0.28735,41.2346 q 0,18.1029 5.17228,24.1372 5.31595,6.178 20.1144,6.0344 v 6.0343 l -73.41757,0.431 v -6.0343 q 14.5111,0 19.39603,-5.8907 4.88493,-5.8906 4.88493,-24.5683 l -1.00572,-136.0595 q 0,-17.0973 -3.16084,-22.5569 -3.30451,-5.316 -9.76985,-5.316 -3.87921,0 -9.33883,1.8678 l -2.29879,-5.6033 z m 5.31595,44.2517 0.43102,55.602 q 0.14368,18.8213 3.16084,27.1544 3.01716,8.9078 11.49394,14.9421 8.62046,6.0344 18.96501,6.0344 19.10869,-0.1437 30.17161,-17.241 11.2066,-17.0972 11.06292,-45.5447 -0.14367,-27.2981 -11.49394,-44.9701 -11.2066,-17.6719 -29.45324,-17.5282 -18.82133,0 -34.33816,21.5511 z m 229.44792,83.0438 -0.5747,7.6147 q -19.6834,22.1258 -34.7692,21.1201 -18.103,-1.1494 -16.8099,-26.4361 -13.6491,11.925 -37.93,10.6319 -13.2181,-0.7183 -21.1202,-10.9192 -7.902,-10.3446 -7.1837,-24.8557 1.1494,-26.1487 20.4018,-31.1773 25.2867,-6.7527 50.717,-13.3617 0,-5.6033 1.0057,-16.2352 1.1494,-11.2066 1.2931,-16.9536 0,0 0,0 -22.9879,-18.8213 -31.752,2.4425 -4.0229,9.7699 -5.316,9.9135 -2.4424,0.1437 -19.6834,1.1494 2.0115,-10.9192 4.0229,-21.6948 1.4368,-8.3331 14.9422,-12.356 42.6712,-12.9307 61.3489,13.7927 0,0 0,0 l -6.3217,104.0202 q -1.0057,14.3675 7.6148,14.7985 8.4767,0.5747 20.1144,-11.4939 z m -51.7228,-4.3103 3.8792,-54.8836 q -18.8213,-1.5804 -32.9014,8.4768 -11.7813,8.4768 -12.4997,21.6948 -0.7183,10.2009 5.316,17.672 6.0343,7.7584 15.5168,8.1894 18.103,1.0057 20.6891,-1.1494 z m 101.1467,-122.9852 h 5.0286 l 0.2874,34.1945 q 19.5397,-34.3382 46.6941,-34.4818 13.7928,-0.1437 26.0051,9.0514 12.356,9.1952 20.1144,26.4361 7.7584,17.0973 7.9021,38.2174 0,17.8156 -5.6033,33.7635 -5.4596,15.8041 -14.7985,26.867 -9.1951,10.9193 -21.4074,17.3846 -12.2124,6.3217 -24.9994,6.4654 -20.1144,0.1437 -33.1887,-13.6491 l 0.2873,41.2346 q 0,18.1029 5.1723,24.1372 5.3159,6.178 20.1144,6.0344 v 6.0343 l -73.4176,0.431 v -6.0343 q 14.5111,0 19.396,-5.8907 4.885,-5.8906 4.885,-24.5683 l -1.0057,-136.0595 q 0,-17.0973 -3.1609,-22.5569 -3.3045,-5.316 -9.7698,-5.316 -3.8792,0 -9.3389,1.8678 l -2.2988,-5.6033 z m 5.316,44.2517 0.431,55.602 q 0.1437,18.8213 3.1608,27.1544 3.0172,8.9078 11.494,14.9421 8.6204,6.0344 18.965,6.0344 19.1087,-0.1437 30.1716,-17.241 11.2066,-17.0972 11.0629,-45.5447 -0.1436,-27.2981 -11.4939,-44.9701 -11.2066,-17.6719 -29.4533,-17.5282 -18.8213,0 -34.3381,21.5511 z m 223.9882,59.4812 4.5976,2.7298 q -4.7412,26.4361 -19.827,41.8092 -14.9422,15.3732 -35.0566,15.3732 -24.5683,0 -41.0908,-20.8328 -16.5226,-20.9765 -16.5226,-56.7514 0,-36.0622 16.5226,-58.1881 16.6662,-22.2695 44.2517,-22.2695 23.2752,0 37.499,16.8099 14.2237,16.6662 14.2237,43.1023 h -92.3826 q -0.1437,2.5861 -0.1437,6.0343 0,12.0687 3.4482,23.9936 3.5919,11.925 9.7699,21.5512 6.3217,9.4825 15.5168,15.3731 9.3388,5.8907 19.9707,5.8907 28.3039,0 39.2231,-34.6255 z m -87.2103,-48.1309 h 61.349 q -0.4311,-18.2467 -8.4768,-28.3039 -7.9021,-10.2008 -20.6891,-10.2008 -12.787,0 -21.8385,10.6319 -8.9078,10.4882 -10.3446,27.8728 z m 147.6972,-49.5677 h 5.4597 v 32.3268 q 17.8156,-32.3268 37.499,-32.3268 6.8963,0 12.356,5.8907 5.4596,5.747 5.4596,12.9307 0,5.0286 -4.0229,9.4825 -3.8792,4.3102 -9.0515,4.3102 -5.4596,0 -12.356,-6.4653 -5.0286,-4.885 -8.0457,-4.885 -10.9193,0 -21.8385,22.1259 v 74.1359 q 0,9.7699 1.1494,15.5168 1.1494,5.747 4.3102,9.1952 3.1608,3.3045 7.7584,4.4539 4.7413,1.0057 12.787,1.0057 v 5.8907 h -72.2682 v -5.8907 q 12.9307,-0.431 17.5283,-6.3216 4.7413,-5.8907 4.7413,-23.85 v -68.6763 q 0,-18.534 -3.5919,-22.5569 -3.7355,-4.1665 -9.1952,-4.1665 -3.8792,0 -7.7584,1.8677 l -1.7241,-5.3159 z m 243.528,81.607 4.8849,1.1494 -9.4825,51.5791 -147.5535,15.5168 -0.7184,-5.0286 q 22.5569,-2.2987 24.8557,-13.7927 1.0057,-4.8849 -0.8621,-20.4017 l -14.2237,-114.3648 q -1.8678,-16.0915 -4.1666,-20.6891 -5.1723,-9.6262 -27.4418,-7.7584 l -0.5747,-4.8849 83.0438,-8.7642 0.7183,5.0286 q -21.2638,2.7298 -23.5625,13.0744 -1.1494,4.8849 0.862,20.9764 l 15.6605,127.5828 q 0.862,6.4654 3.5919,8.3331 2.7298,1.8678 11.9249,1.0058 l 34.6255,-3.7356 q 21.2638,-2.1551 31.321,-11.4939 10.2009,-9.4825 17.0973,-33.3325 z m 139.2204,39.6542 -0.5747,7.6147 q -19.6834,22.1258 -34.7692,21.1201 -18.1029,-1.1494 -16.8099,-26.4361 -13.649,11.925 -37.93,10.6319 -13.218,-0.7183 -21.1201,-10.9192 -7.9021,-10.3446 -7.1837,-24.8557 1.1494,-26.1487 20.4017,-31.1773 25.2867,-6.7527 50.7171,-13.3617 0,-5.6033 1.0057,-16.2352 1.1494,-11.2066 1.2931,-16.9536 0,0 0,0 -22.9879,-18.8213 -31.7521,2.4425 -4.0228,9.7699 -5.3159,9.9135 -2.4425,0.1437 -19.6834,1.1494 2.0114,-10.9192 4.0229,-21.6948 1.4367,-8.3331 14.9421,-12.356 42.6713,-12.9307 61.3489,13.7927 0,0 0,0 l -6.3216,104.0202 q -1.0057,14.3675 7.6147,14.7985 8.4768,0.5747 20.1144,-11.4939 z m -51.7227,-4.3103 3.8792,-54.8836 q -18.8214,-1.5804 -32.9014,8.4768 -11.7813,8.4768 -12.4997,21.6948 -0.7184,10.2009 5.3159,17.672 6.0344,7.7584 15.5169,8.1894 18.1029,1.0057 20.6891,-1.1494 z m 98.4169,-116.9509 h 5.0286 v 31.6084 q 14.2237,-17.8156 24.4246,-24.712 10.2009,-6.8964 22.2695,-6.8964 16.3789,0 26.1487,13.3617 9.7699,13.6491 9.7699,39.3668 v 64.9408 q 0,17.0972 4.4539,23.4189 4.4539,6.178 16.2352,6.609 v 5.8907 h -68.82 v -5.8907 q 13.9364,0 18.965,-5.8906 5.0286,-6.0343 5.0286,-24.1373 v -63.3604 q 0,-35.3439 -23.4189,-35.3439 -17.0972,0 -35.0565,21.4075 v 77.2968 q 0,17.0972 4.5975,23.4189 4.5976,6.3217 17.672,6.609 v 5.8907 h -67.5269 v -5.8907 q 12.6433,-0.2873 16.9535,-6.609 4.3103,-6.3217 4.3103,-23.4189 v -72.8429 q 0,-23.7062 -11.925,-23.7062 -4.3102,0 -9.3388,2.7298 l -2.0115,-6.178 z m 205.7415,-55.0272 -2.4424,-5.1723 42.0965,-20.1144 h 5.0287 l 1.0057,187.064 q 0,16.3788 2.8735,21.8384 3.0171,5.316 9.7698,5.316 4.0229,0 8.7641,-2.4425 l 2.1552,5.6033 -47.1252,19.2524 v -21.9822 q -18.965,22.1259 -41.3782,22.2695 -15.5168,0 -29.1659,-9.7698 -13.5054,-9.9135 -21.8385,-27.0108 -8.1894,-17.0972 -8.1894,-37.068 -0.1437,-21.9821 9.3388,-41.5218 9.4825,-19.5397 25.2867,-31.0337 15.9478,-11.6376 34.0508,-11.6376 16.2352,-0.1437 31.1773,10.9192 l -0.1437,-40.9471 q -0.1436,-14.3675 -2.8734,-19.8271 -2.7299,-5.747 -9.7699,-5.747 -3.4482,0 -8.6205,2.0115 z m 21.9822,178.4435 -0.2873,-70.8315 q -0.1437,-11.4939 -3.4482,-20.4017 -3.1609,-9.0515 -8.4768,-14.2238 -5.316,-5.3159 -11.3503,-7.9021 -5.8906,-2.7298 -12.2123,-2.5861 -15.6605,0 -27.2981,18.6777 -11.494,18.5339 -11.494,44.8263 0.1437,28.3039 14.0801,47.8436 13.9364,19.5397 33.0451,19.396 16.3789,0 27.4418,-14.7984 z"
     id="text2"
     transform="scale(0.99059728,1.009492)"
     aria-label="paperLand" />
</svg>
