<?xml version="1.0" encoding="UTF-8"?>
<svg id="Layer_1" data-name="Layer 1" xmlns="http://www.w3.org/2000/svg" viewBox="0 0 1080 1453.75">
  <defs>
  </defs>
  <g>
    <path  d="M1025.85,1447.95h52.15v-28.03h-5.87c-.65,5.87-1.96,10.43-3.26,13.69s-3.26,5.21-5.21,6.52-5.21,1.96-9.13,1.96h-27.38l7.82,3.26v-76.26c0-1.3,0-2.61.65-3.26s1.96-1.3,3.26-1.3l5.87-.65v-5.87h-32.59v5.87l5.87.65c1.96,0,3.26.65,3.26,1.3.65.65.65,1.96.65,3.26v69.09c0,1.3,0,2.61-.65,3.26s-1.96,1.3-3.26,1.3l-5.87.65v5.87h13.69v-1.3ZM937.86,1409.49l-2.61,6.52h39.76l-2.61-6.52h-34.55ZM924.17,1447.95h17.6v-5.87l-6.52-.65c-1.96,0-2.61-.65-3.26-1.96-.65-.65-.65-1.96,0-3.91s1.3-4.56,2.61-7.82v-1.3l22.16-64.53-4.56,1.96,24.12,73c.65,1.3.65,1.96.65,2.61s-.65,1.3-.65,1.3c-.65,0-1.3.65-2.61.65l-6.52.65v5.87h35.2v-5.87l-5.87-.65c-1.96,0-3.26-.65-3.91-1.3-.65-.65-1.3-1.3-1.96-3.26l-28.03-80.83h-11.08l-24.77,70.4c-1.3,3.91-2.61,6.52-3.26,8.47s-1.96,3.26-2.61,4.56-1.96,1.3-3.26,1.96l-5.87.65v5.87h12.38ZM837.48,1365.82l49.54,83.43h10.43v-78.87c0-1.96.65-3.26,1.3-3.91.65-.65,1.96-1.3,3.26-1.96l5.87-.65v-5.87h-28.68v5.87l5.87.65c1.3,0,2.61.65,3.26,1.96.65.65,1.3,2.61,1.3,3.91v71.7l3.26-8.47-46.28-76.26h-22.81v5.87l5.21.65c1.3,0,1.96.65,2.61,1.96.65.65.65,2.61,1.3,3.91,0,1.96.65,4.56.65,7.82v50.19c0,3.26,0,5.87-.65,7.82,0,1.96-.65,3.26-1.3,3.91s-1.96,1.3-3.26,1.96l-5.87.65v5.87h29.98v-5.87l-6.52-.65c-1.96,0-2.61-.65-3.26-1.96-.65-.65-1.3-2.61-1.3-3.91,0-1.96-.65-4.56-.65-8.47v-65.18l-3.26,3.91ZM769.04,1443.39c-6.52,0-12.38-1.3-16.95-4.56s-8.47-7.82-10.43-14.34c-2.61-6.52-3.91-14.99-4.56-25.42,0-7.82.65-14.34,3.26-20.21,1.96-5.87,5.87-10.43,10.43-13.04,4.56-3.26,9.78-4.56,16.3-4.56s11.73,1.3,16.3,4.56,7.82,7.82,10.43,14.34,3.91,14.34,4.56,24.77c0,7.82-.65,14.99-3.26,20.86s-5.87,10.43-10.43,13.04c-3.91,3.26-9.78,4.56-15.64,4.56M766.43,1450.56c8.47,0,16.95-1.96,23.47-5.87,7.17-3.91,12.38-9.78,16.95-16.95,3.91-7.82,5.87-16.3,5.87-26.72,0-9.13-1.96-16.95-5.21-23.47-3.26-7.17-8.47-12.38-14.99-16.3s-14.34-5.87-22.81-5.87c-9.13,0-16.95,1.96-24.12,5.87-7.17,3.91-12.38,9.78-16.3,17.6-3.91,7.82-5.87,16.3-5.87,26.72,0,9.13,1.96,16.95,5.21,23.47,3.26,6.52,8.47,12.38,14.99,16.3,6.52,3.26,13.69,5.21,22.81,5.21M692.12,1447.95h20.21v-5.87l-5.87-.65c-1.96,0-3.26-.65-3.26-1.3-.65-.65-.65-1.96-.65-3.26v-69.09c0-1.3,0-2.61.65-3.26s1.96-1.3,3.26-1.3l5.87-.65v-5.87h-33.89v5.87l5.87.65c1.96,0,3.26.65,3.26,1.3.65.65.65,1.96.65,3.26v69.09c0,1.3,0,2.61-.65,3.26s-1.96,1.3-3.26,1.3l-5.87.65v5.87h13.69ZM666.7,1381.46v-24.12h-76.26v24.12h5.21l.65-4.56c.65-3.91,1.3-6.52,1.96-7.82.65-1.3,1.96-2.61,3.26-3.26s3.26-1.3,5.87-1.3h14.34v72.35c0,1.3-.65,2.61-1.3,3.26s-1.96,1.3-4.56,1.3l-7.17.65v5.87h37.15v-5.87l-7.17-.65c-1.96,0-3.26-.65-3.91-1.3-.65-.65-1.3-1.96-1.3-3.26v-72.35h14.34c2.61,0,4.56.65,5.87,1.3,1.3.65,1.96,1.96,2.61,3.26s1.3,4.56,1.96,7.82l.65,4.56h7.82ZM526.56,1409.49l-2.61,6.52h39.76l-2.61-6.52h-34.55ZM512.22,1447.95h18.25v-5.87l-6.52-.65c-1.96,0-2.61-.65-3.26-1.96-.65-.65-.65-1.96,0-3.91s1.3-4.56,2.61-7.82v-1.3l22.16-64.53-4.56,1.96,24.12,73c.65,1.3.65,1.96.65,2.61s-.65,1.3-.65,1.3c-.65,0-1.3.65-2.61.65l-6.52.65v5.87h34.55v-5.87l-5.87-.65c-1.96,0-3.26-.65-3.91-1.3-.65-.65-1.3-1.3-1.96-3.26l-28.03-80.83h-11.08l-24.77,70.4c-1.3,3.91-2.61,6.52-3.26,8.47s-1.96,3.26-2.61,4.56-1.96,1.3-3.26,1.96l-5.87.65v5.87h12.38ZM425.53,1365.82l49.54,83.43h10.43v-78.87c0-1.96.65-3.26,1.3-3.91s1.96-1.3,3.26-1.96l5.87-.65v-5.87h-28.68v5.87l5.87.65c1.3,0,2.61.65,3.26,1.96.65.65,1.3,2.61,1.3,3.91v71.7l3.26-8.47-46.28-76.26h-22.81v5.87l5.21.65c1.3,0,1.96.65,2.61,1.96.65.65.65,2.61,1.3,3.91,0,1.96.65,4.56.65,7.82v50.19c0,3.26,0,5.87-.65,7.82,0,1.96-.65,3.26-1.3,3.91-.65.65-1.96,1.3-3.26,1.96l-5.87.65v5.87h29.98v-5.87l-6.52-.65c-1.96,0-2.61-.65-3.26-1.96-.65-.65-1.3-2.61-1.3-3.91,0-1.96-.65-4.56-.65-8.47v-65.18l-3.26,3.91ZM343.4,1437.52v-76.26l-5.21,3.26h24.12c4.56,0,8.47.65,11.08,1.96s4.56,3.26,5.87,6.52c1.3,2.61,1.96,5.87,1.96,9.78,0,4.56-.65,7.82-2.61,10.43-1.3,2.61-3.91,5.21-7.17,6.52s-6.52,1.96-11.08,1.96h-22.16v6.52h23.47c6.52,0,11.73-1.3,16.95-3.26,5.21-1.96,8.47-5.21,11.73-9.78,2.61-3.91,3.91-9.13,3.91-14.34,0-7.17-2.61-13.04-7.17-16.95-4.56-3.91-11.73-5.87-21.51-5.87h-45.63v5.87l5.87.65c1.96,0,3.26.65,3.26,1.3.65.65.65,1.96.65,3.26v69.09c0,1.3,0,2.61-.65,3.26s-1.96,1.3-3.26,1.3l-5.87.65v5.87h34.55v-5.87l-5.87-.65c-1.96,0-3.26-.65-3.91-1.3-1.3-1.96-1.3-2.61-1.3-3.91M390.33,1449.91c1.96,0,3.91,0,5.21-.65s2.61-1.3,3.91-2.61l-31.29-42.37-11.73,1.3c1.3,1.96,1.96,3.26,3.26,5.21s1.96,3.91,3.26,5.87c3.91,6.52,9.78,14.99,16.3,24.77,1.96,3.26,3.26,5.21,5.21,6.52s3.91,1.96,5.87,1.96M283.43,1441.43h-30.64l5.87,3.91v-85.39l-5.87,4.56h29.98c3.91,0,6.52.65,8.47,1.3,1.96,1.3,3.91,2.61,4.56,4.56,1.3,1.96,1.96,5.21,3.26,9.13h5.87v-22.16h-69.74v5.87l5.87.65c1.96,0,3.26.65,3.26,1.3.65.65.65,1.96.65,3.26v69.09c0,1.3,0,2.61-.65,3.26s-1.96,1.3-3.26,1.3l-5.87.65v5.87h71.7v-24.77h-5.87c-.65,5.21-1.96,8.47-3.26,11.08s-3.26,4.56-5.21,5.21c-1.96.65-5.21,1.3-9.13,1.3M288.64,1416.66h5.21v-28.03h-5.21c-.65,2.61-1.3,5.21-2.61,6.52-.65,1.3-1.96,2.61-3.26,3.26s-3.26.65-5.87.65h-22.16v6.52h20.86c2.61,0,5.21,0,6.52.65s2.61,1.96,3.91,3.26c.65,1.96,1.3,4.56,2.61,7.17M223.46,1381.46v-24.12h-75.61v24.12h5.21l.65-4.56c.65-3.91,1.3-6.52,1.96-7.82.65-1.3,1.96-2.61,3.26-3.26s3.26-1.3,5.87-1.3h14.34v72.35c0,1.3-.65,2.61-1.3,3.26s-1.96,1.3-4.56,1.3l-7.17.65v5.87h37.15v-5.87l-7.17-.65c-1.96,0-3.26-.65-3.91-1.3-.65-.65-1.3-1.96-1.3-3.26v-72.35h14.34c2.61,0,4.56.65,5.87,1.3,1.3.65,1.96,1.96,2.61,3.26s1.3,4.56,1.96,7.82l.65,4.56h7.17ZM65.07,1365.82l49.54,83.43h10.43v-78.87c0-1.96.65-3.26,1.3-3.91s1.96-1.3,3.26-1.96l5.87-.65v-5.87h-28.68v5.87l5.87.65c1.3,0,2.61.65,3.26,1.96.65.65,1.3,2.61,1.3,3.91v71.7l3.26-8.47-46.28-76.26h-22.81v5.87l5.21.65c1.3,0,1.96.65,2.61,1.96.65.65.65,2.61,1.3,3.91,0,1.96.65,4.56.65,7.82v50.19c0,3.26,0,5.87-.65,7.82,0,1.96-.65,3.26-1.3,3.91-.65.65-1.96,1.3-3.26,1.96l-5.87.65v5.87h29.98v-5.87l-6.52-.65c-1.96,0-2.61-.65-3.26-1.96-.65-.65-1.3-2.61-1.3-3.91,0-1.96-.65-4.56-.65-8.47v-65.18l-3.26,3.91ZM18.14,1447.95h20.21v-5.87l-5.87-.65c-1.96,0-3.26-.65-3.26-1.3-.65-.65-.65-1.96-.65-3.26v-69.09c0-1.3,0-2.61.65-3.26s1.96-1.3,3.26-1.3l5.87-.65v-5.87H4.45v5.87l5.87.65c1.96,0,3.26.65,3.26,1.3.65.65.65,1.96.65,3.26v69.09c0,1.3,0,2.61-.65,3.26s-1.96,1.3-3.26,1.3l-5.87.65v5.87h13.69Z"/>
    <path class="cls-1" d="M785.98,1228.94l49.54,83.43h10.43v-78.87c0-1.96.65-3.26,1.3-3.91.65-.65,1.96-1.3,3.26-1.96l5.87-.65v-5.87h-28.68v5.87l5.87.65c1.3,0,2.61.65,3.26,1.96.65.65,1.3,2.61,1.3,3.91v71.7l3.26-8.47-46.28-76.26h-22.81v5.87l5.21.65c1.3,0,1.96.65,2.61,1.96.65.65.65,2.61,1.3,3.91,0,1.96.65,4.56.65,7.82v50.19c0,3.26,0,5.87-.65,7.82,0,1.96-.65,3.26-1.3,3.91s-1.96,1.3-3.26,1.96l-5.87.65v5.87h29.98v-5.87l-6.52-.65c-1.96,0-2.61-.65-3.26-1.96-.65-.65-1.3-2.61-1.3-3.91,0-1.96-.65-4.56-.65-8.47v-65.18l-3.26,3.91ZM717.54,1306.51c-6.52,0-11.73-1.3-16.95-4.56-4.56-3.26-8.47-7.82-10.43-14.34-2.61-6.52-3.91-14.99-4.56-25.42,0-7.82.65-14.34,3.26-20.21,1.96-5.87,5.87-10.43,10.43-13.04,4.56-3.26,9.78-4.56,16.3-4.56s11.73,1.3,16.3,4.56c4.56,3.26,7.82,7.82,10.43,14.34s3.91,14.34,4.56,24.77c0,7.82-.65,14.99-3.26,20.86-2.61,5.87-5.87,10.43-10.43,13.04-4.56,3.26-9.78,4.56-15.64,4.56M714.94,1313.68c8.47,0,16.95-1.96,24.12-5.87,7.17-3.91,12.38-9.78,16.95-16.95,3.91-7.82,5.87-16.3,5.87-26.72,0-9.13-1.96-16.95-5.21-23.47-3.26-7.17-8.47-12.38-14.99-16.3s-14.34-5.87-22.81-5.87c-9.13,0-16.95,1.96-24.12,5.87-7.17,3.91-12.38,9.78-16.3,17.6-3.91,7.82-5.87,16.3-5.87,26.72,0,9.13,1.96,16.95,5.21,23.47,3.26,6.52,8.47,12.38,14.99,16.3,5.21,3.26,13.04,5.21,22.16,5.21M640.63,1311.07h20.21v-5.87l-5.87-.65c-1.96,0-3.26-.65-3.26-1.3-.65-.65-.65-1.96-.65-3.26v-69.09c0-1.3,0-2.61.65-3.26s1.96-1.3,3.26-1.3l5.87-.65v-5.87h-33.89v5.87l5.87.65c1.96,0,3.26.65,3.26,1.3.65.65.65,1.96.65,3.26v69.09c0,1.3,0,2.61-.65,3.26s-1.96,1.3-3.26,1.3l-5.87.65v5.87h13.69ZM614.55,1244.58v-24.12h-75.61v24.12h5.21l.65-4.56c.65-3.91,1.3-6.52,1.96-7.82.65-1.3,1.96-2.61,3.26-3.26s3.26-1.3,5.87-1.3h14.34v72.35c0,1.3-.65,2.61-1.3,3.26s-1.96,1.3-4.56,1.3l-7.17.65v5.87h38.46v-5.87l-7.17-.65c-1.96,0-3.26-.65-3.91-1.3s-1.3-1.96-1.3-3.26v-72.35h14.34c2.61,0,4.56.65,5.87,1.3,1.3.65,1.96,1.96,2.61,3.26s1.3,4.56,1.96,7.82l.65,4.56h5.87ZM516.78,1276.52v-43.02c0-1.96.65-3.26,1.3-3.91s1.96-1.3,3.26-1.96l5.87-.65v-5.87h-29.33v5.87l5.87.65c1.3,0,2.61.65,3.26,1.96.65.65,1.3,2.61,1.3,3.91,0,1.96.65,4.56.65,7.82v32.59c0,10.43-1.96,17.6-5.21,22.81s-9.13,7.82-16.95,7.82c-4.56,0-8.47-.65-11.73-2.61-3.26-1.96-5.87-4.56-7.82-9.13-1.96-4.56-2.61-9.78-2.61-16.95v-44.32c0-1.3,0-2.61.65-3.26s1.96-1.3,3.26-1.3l5.87-.65v-5.87h-33.24v5.87l5.87.65c1.96,0,3.26.65,3.91,1.3s.65,1.96.65,3.26v46.28c0,12.38,2.61,21.51,8.47,27.38,5.21,5.87,13.69,8.47,24.12,8.47s18.9-3.26,24.12-9.13c5.21-6.52,8.47-15.64,8.47-28.03M429.44,1244.58v-24.12h-76.26v24.12h5.21l.65-4.56c.65-3.91,1.3-6.52,1.96-7.82s1.96-2.61,3.26-3.26,3.26-1.3,5.87-1.3h14.34v72.35c0,1.3,0,2.61-1.3,3.26-.65.65-1.96,1.3-4.56,1.3l-7.17.65v5.87h37.15v-5.87l-7.17-.65c-1.96,0-3.26-.65-3.91-1.3-.65-.65-1.3-1.96-1.3-3.26v-72.35h14.34c2.61,0,4.56.65,5.87,1.3,1.3.65,1.96,1.96,2.61,3.26.65,1.3,1.3,4.56,1.96,7.82l.65,4.56h7.82ZM320.58,1311.07h20.21v-5.87l-5.87-.65c-1.96,0-3.26-.65-3.26-1.3-.65-.65-.65-1.96-.65-3.26v-69.09c0-1.3,0-2.61.65-3.26s1.96-1.3,3.26-1.3l5.87-.65v-5.87h-33.89v5.87l5.87.65c1.96,0,3.26.65,3.26,1.3.65.65.65,1.96.65,3.26v69.09c0,1.3,0,2.61-.65,3.26s-1.96,1.3-3.26,1.3l-5.87.65v5.87h13.69ZM295.16,1244.58v-24.12h-76.26v24.12h5.21l.65-4.56c.65-3.91,1.3-6.52,1.96-7.82s1.96-2.61,3.26-3.26,3.26-1.3,5.87-1.3h14.34v72.35c0,1.3-.65,2.61-1.3,3.26-.65.65-1.96,1.3-4.56,1.3l-7.17.65v5.87h37.15v-5.87l-7.17-.65c-1.96,0-3.26-.65-3.91-1.3-.65-.65-1.3-1.96-1.3-3.26v-72.35h14.34c2.61,0,4.56.65,5.87,1.3,1.3.65,1.96,1.96,2.61,3.26.65,1.3,1.3,4.56,1.96,7.82l.65,4.56h7.82ZM177.83,1313.02c5.87,0,11.08-1.3,15.64-3.26,4.56-1.96,8.47-5.21,11.08-9.78,2.61-3.91,3.91-9.13,3.91-14.34s-1.3-9.78-3.91-13.69-5.87-6.52-9.13-8.47-8.47-4.56-14.34-6.52c-4.56-1.96-8.47-3.26-11.08-5.21-2.61-1.3-5.21-3.26-6.52-5.21-1.96-1.96-2.61-5.21-2.61-7.82,0-3.91,1.3-7.82,4.56-10.43,3.26-2.61,7.17-3.91,11.73-3.91,3.91,0,7.17.65,9.78,1.96s5.21,3.26,7.17,5.87c1.96,2.61,3.26,5.87,3.91,9.78h5.21v-20.21c-3.26-1.3-6.52-1.96-11.08-3.26-4.56-.65-8.47-1.3-13.04-1.3-5.21,0-9.78.65-14.99,2.61-4.56,1.96-8.47,4.56-11.08,8.47-2.61,3.91-4.56,8.47-4.56,14.34,0,4.56,1.3,8.47,3.26,11.73s5.21,5.87,8.47,7.17c3.26,1.96,7.82,3.91,13.04,5.87,5.21,1.96,9.13,3.91,11.73,5.21,3.26,1.3,5.21,3.91,7.17,6.52,1.96,2.61,2.61,5.87,2.61,9.78,0,5.21-1.3,9.13-4.56,11.73-3.26,2.61-7.82,3.91-13.04,3.91-3.91,0-7.82-.65-11.08-1.96s-5.87-3.26-8.47-5.87c-1.96-2.61-3.91-5.87-4.56-9.13l-1.3-5.21h-5.21v22.81c3.91,1.96,8.47,3.26,13.69,4.56,5.87,2.61,11.73,3.26,17.6,3.26M65.07,1228.94l49.54,83.43h10.43v-78.87c0-1.96.65-3.26,1.3-3.91s1.96-1.3,3.26-1.96l5.87-.65v-5.87h-28.68v5.87l5.87.65c1.3,0,2.61.65,3.26,1.96.65.65,1.3,2.61,1.3,3.91v71.7l3.26-8.47-46.28-76.26h-22.81v5.87l5.21.65c1.3,0,1.96.65,2.61,1.96.65.65.65,2.61,1.3,3.91,0,1.96.65,4.56.65,7.82v50.19c0,3.26,0,5.87-.65,7.82,0,1.96-.65,3.26-1.3,3.91-.65.65-1.96,1.3-3.26,1.96l-5.87.65v5.87h29.98v-5.87l-6.52-.65c-1.96,0-2.61-.65-3.26-1.96-.65-.65-1.3-2.61-1.3-3.91,0-1.96-.65-4.56-.65-8.47v-65.18l-3.26,3.91ZM18.14,1311.07h20.21v-5.87l-5.87-.65c-1.96,0-3.26-.65-3.26-1.3-.65-.65-.65-1.96-.65-3.26v-69.09c0-1.3,0-2.61.65-3.26s1.96-1.3,3.26-1.3l5.87-.65v-5.87H4.45v5.87l5.87.65c1.96,0,3.26.65,3.26,1.3.65.65.65,1.96.65,3.26v69.09c0,1.3,0,2.61-.65,3.26s-1.96,1.3-3.26,1.3l-5.87.65v5.87h13.69Z"/>
    <path class="cls-1" d="M784.03,1176.14c5.87,0,11.08-1.3,15.64-3.26,4.56-1.96,8.47-5.21,11.08-9.78,2.61-3.91,3.91-9.13,3.91-14.34,0-5.87-1.3-9.78-3.91-13.69-2.61-3.26-5.87-6.52-9.13-8.47-3.91-1.96-8.47-4.56-14.34-6.52-4.56-1.96-8.47-3.26-11.08-5.21-2.61-1.3-5.21-3.26-6.52-5.21-1.96-1.96-2.61-5.21-2.61-7.82,0-3.91,1.3-7.82,4.56-10.43,3.26-2.61,7.17-3.91,11.73-3.91,3.91,0,7.17.65,9.78,1.96,3.26,1.3,5.21,3.26,7.17,5.87,1.96,2.61,3.26,5.87,3.91,9.78h5.21v-20.21c-3.26-1.3-6.52-1.96-11.08-3.26-4.56-.65-8.47-1.3-13.04-1.3-5.21,0-9.78.65-14.99,2.61-4.56,1.96-8.47,4.56-11.08,8.47-2.61,3.91-4.56,8.47-4.56,14.34,0,4.56,1.3,8.47,3.26,11.73s5.21,5.87,8.47,7.17c3.26,1.96,7.82,3.91,13.04,5.87,5.21,1.96,9.13,3.91,11.73,5.21,3.26,1.3,5.21,3.91,7.17,6.52,1.96,2.61,2.61,5.87,2.61,9.78,0,5.21-1.3,9.13-4.56,11.73-3.26,2.61-7.82,3.91-13.04,3.91-3.91,0-7.82-.65-11.08-1.96s-5.87-3.26-8.47-5.87-3.91-5.87-4.56-9.13l-1.3-5.21h-5.21v22.81c3.91,1.96,8.47,3.26,13.69,4.56,6.52,2.61,11.73,3.26,17.6,3.26M718.19,1116.17c5.87-1.96,10.43-5.87,14.34-10.43,3.26-4.56,5.21-9.78,5.21-15.64,0-2.61-.65-4.56-1.3-6.52s-1.96-3.26-3.26-4.56-3.26-1.3-5.87-1.3-4.56.65-6.52,2.61c-1.3,1.3-1.96,3.26-1.96,5.87s1.3,4.56,3.26,5.21,5.87,1.3,10.43.65l-3.91-3.91c1.3,4.56.65,9.13-1.3,13.04-2.61,4.56-5.87,7.82-11.08,11.08l1.96,3.91ZM632.81,1130.51h55.4v-7.17h-55.4v7.17ZM629.55,1174.19h20.21v-5.87l-5.87-.65c-1.96,0-3.26-.65-3.26-1.3-.65-.65-.65-1.96-.65-3.26v-69.09c0-1.3,0-2.61.65-3.26s1.96-1.3,3.26-1.3l5.87-.65v-5.87h-33.89v5.87l5.87.65c1.96,0,3.26.65,3.26,1.3.65.65.65,1.96.65,3.26v69.09c0,1.3,0,2.61-.65,3.26s-1.96,1.3-3.26,1.3l-5.87.65v5.87h13.69ZM684.3,1174.19h20.21v-5.87l-5.87-.65c-1.96,0-3.26-.65-3.91-1.3-.65-.65-.65-1.96-.65-3.26v-69.09c0-1.3,0-2.61.65-3.26s1.96-1.3,3.91-1.3l5.87-.65v-5.87h-33.24v5.87l5.87.65c1.96,0,3.26.65,3.91,1.3.65.65.65,1.96.65,3.26v69.09c0,1.3,0,2.61-.65,3.26s-1.96,1.3-3.91,1.3l-5.87.65v5.87h13.04ZM546.77,1174.19h22.81v-5.87l-7.17-.65c-2.61,0-3.91-.65-4.56-1.3-.65-.65-1.3-1.96-1.3-3.26v-77.57l-5.87,3.91h22.81c5.21,0,9.13.65,11.73,2.61,3.26,1.3,5.21,3.91,6.52,7.17s1.96,7.17,1.96,12.38-.65,9.13-2.61,12.38c-1.96,3.26-3.91,5.87-7.17,7.17-3.26,1.3-7.17,1.96-11.73,1.96h-22.16v6.52h23.47c6.52,0,12.38-1.3,17.6-3.26,5.21-2.61,9.13-5.87,11.73-10.43,2.61-4.56,3.91-9.78,3.91-16.3,0-9.13-2.61-15.64-7.82-20.21-5.21-4.56-12.38-6.52-22.81-6.52h-43.67v5.87l5.87.65c1.96,0,3.26.65,3.26,1.3.65.65.65,1.96.65,3.26v69.09c0,1.3,0,2.61-.65,3.26s-1.96,1.3-3.26,1.3l-5.87.65v5.87h14.34ZM496.58,1167.67h-30.64l5.87,3.91v-85.39l-5.87,4.56h29.98c3.91,0,6.52.65,8.47,1.3s3.91,2.61,4.56,4.56c1.3,1.96,1.96,5.21,3.26,9.13h5.87v-22.16h-69.74v5.87l5.87.65c1.96,0,3.26.65,3.26,1.3s.65,1.96.65,3.26v68.44c0,1.3,0,2.61-.65,3.26s-1.96,1.3-3.26,1.3l-5.87.65v5.87h71.7v-24.77h-5.87c-.65,5.21-1.96,8.47-3.26,11.08s-3.26,4.56-5.21,5.21c-2.61,1.3-5.21,1.96-9.13,1.96M501.14,1142.9h5.21v-28.03h-5.21c-.65,2.61-1.3,5.21-2.61,6.52-.65,1.3-1.96,2.61-3.26,3.26s-3.26.65-5.87.65h-22.16v6.52h20.86c2.61,0,5.21,0,6.52.65s2.61,1.96,3.91,3.26c1.3,1.3,1.96,3.91,2.61,7.17M406.62,1176.14c5.87,0,11.08-1.3,15.64-3.26,4.56-1.96,8.47-5.21,11.08-9.78,2.61-3.91,3.91-9.13,3.91-14.34,0-5.87-1.3-9.78-3.91-13.69-2.61-3.26-5.87-6.52-9.13-8.47-3.91-1.96-8.47-4.56-14.34-6.52-4.56-1.96-8.47-3.26-11.08-5.21-2.61-1.3-5.21-3.26-6.52-5.21-1.96-1.96-2.61-5.21-2.61-7.82,0-3.91,1.3-7.82,4.56-10.43,3.26-2.61,7.17-3.91,11.73-3.91,3.91,0,7.17.65,9.78,1.96,3.26,1.3,5.21,3.26,7.17,5.87,1.96,2.61,3.26,5.87,3.91,9.78h5.87v-20.21c-3.26-1.3-6.52-1.96-11.08-3.26-4.56-.65-8.47-1.3-13.04-1.3-5.21,0-9.78.65-14.99,2.61-4.56,1.96-8.47,4.56-11.08,8.47s-4.56,8.47-4.56,14.34c0,4.56,1.3,8.47,3.26,11.73s5.21,5.87,8.47,7.17c3.26,1.96,7.82,3.91,13.04,5.87,5.21,1.96,9.13,3.91,11.73,5.21,3.26,1.3,5.21,3.91,7.17,6.52s2.61,5.87,2.61,9.78c0,5.21-1.3,9.13-4.56,11.73-3.26,2.61-7.82,3.91-13.04,3.91-3.91,0-7.82-.65-11.08-1.96s-5.87-3.26-8.47-5.87c-1.96-2.61-3.91-5.87-4.56-9.13l-1.3-5.21h-5.21v22.81c3.91,1.96,8.47,3.26,13.69,4.56,5.87,2.61,11.08,3.26,16.95,3.26M317.98,1169.62c-6.52,0-12.38-1.3-16.95-4.56-4.56-3.26-8.47-7.82-10.43-14.34-2.61-6.52-3.91-14.99-4.56-25.42,0-7.82.65-14.34,3.26-20.21,1.96-5.87,5.87-10.43,10.43-13.04,4.56-3.26,9.78-4.56,16.3-4.56s11.73,1.3,16.3,4.56c4.56,3.26,7.82,7.82,10.43,14.34,2.61,6.52,3.91,14.34,4.56,24.77,0,7.82-.65,14.99-3.26,20.86s-5.87,10.43-10.43,13.04c-3.91,2.61-9.78,4.56-15.64,4.56M315.37,1176.14c8.47,0,16.95-1.96,24.12-5.87,7.17-3.91,12.38-9.78,16.95-16.95,3.91-7.82,5.87-16.3,5.87-26.72,0-9.13-1.96-16.95-5.21-23.47-3.26-7.17-8.47-12.38-14.99-16.3s-14.34-5.87-22.81-5.87c-9.13,0-16.95,1.96-24.12,5.87-7.17,3.91-12.38,9.78-16.3,17.6s-5.87,16.3-5.87,26.72c0,9.13,1.96,16.95,5.21,23.47s8.47,12.38,14.99,16.3c5.21,3.26,13.04,5.21,22.16,5.21M223.46,1182.66v5.21c5.87-.65,11.08-2.61,14.99-5.21,4.56-2.61,7.82-6.52,10.43-11.73,2.61-5.21,3.91-11.73,3.91-20.21v-56.71c0-1.3,0-2.61.65-3.26s1.96-1.3,3.91-1.3l5.87-.65v-5.87h-34.55v5.87l6.52.65c1.96,0,3.26.65,3.91,1.3.65.65.65,1.96.65,3.26v62.57c0,4.56-.65,9.13-1.3,12.38-.65,3.26-2.61,6.52-5.21,8.47-1.96,1.96-5.21,3.91-9.78,5.21M170.01,1175.49c2.61,0,4.56-.65,5.87-2.61,1.3-1.3,1.96-3.26,1.96-5.87s-.65-4.56-1.96-5.87c-1.3-1.3-3.26-1.96-5.87-1.96s-4.56.65-6.52,2.61c-1.3,1.3-2.61,3.26-2.61,5.87s.65,3.91,2.61,5.87c1.96,1.3,3.91,1.96,6.52,1.96M156.32,1107.7v-24.12h-75.61v24.12h5.21l.65-4.56c.65-3.91,1.3-6.52,1.96-7.82s1.96-2.61,3.26-3.26,3.26-1.3,5.87-1.3h14.34v72.35c0,1.3-.65,2.61-1.3,3.26s-1.96,1.3-4.56,1.3l-7.17.65v5.87h37.15v-5.87l-7.17-.65c-1.96,0-3.26-.65-3.91-1.3-.65-.65-1.3-1.96-1.3-3.26v-72.35h15.64c2.61,0,4.56,0,5.87,1.3,1.3.65,1.96,1.96,2.61,3.26s1.3,4.56,1.96,7.82l.65,4.56h5.87ZM39,1176.14c5.87,0,11.08-1.3,15.64-3.26,4.56-1.96,8.47-5.21,11.08-9.78,2.61-3.91,3.91-9.13,3.91-14.34,0-5.87-1.3-9.78-3.91-13.69-2.61-3.26-5.87-6.52-9.13-8.47-3.91-1.96-8.47-4.56-14.34-6.52-4.56-1.96-8.47-3.26-11.08-5.21-2.61-1.3-5.21-3.26-6.52-5.21-1.96-2.61-2.61-5.21-2.61-8.47,0-3.91,1.3-7.82,4.56-10.43,3.26-2.61,7.17-3.91,11.73-3.91,3.91,0,7.17.65,9.78,1.96,3.26,1.3,5.21,3.26,7.17,5.87s3.26,5.87,3.91,9.78h5.21v-19.55c-3.26-1.3-6.52-1.96-11.08-3.26-4.56-.65-8.47-1.3-13.04-1.3-5.21,0-9.78.65-14.99,2.61-4.56,1.96-8.47,4.56-11.08,8.47-2.61,3.91-4.56,8.47-4.56,14.34,0,4.56,1.3,8.47,3.26,11.73s5.21,5.87,8.47,7.17,7.82,3.91,13.04,5.87c5.21,1.96,9.13,3.91,11.73,5.21,3.26,1.3,5.21,3.91,7.17,6.52s2.61,5.87,2.61,9.78c0,5.21-1.3,9.13-4.56,11.73-3.26,2.61-7.82,3.91-13.04,3.91-3.91,0-7.82-.65-11.08-1.96-3.26-1.3-5.87-3.26-8.47-5.87s-3.91-5.87-4.56-9.13l-1.3-5.21h-3.26v22.81c3.91,1.96,8.47,3.26,13.69,4.56,4.56,2.61,9.78,3.26,15.64,3.26"/>
  </g>
  <g>
    <path class="cls-1" d="M718.19,834.59c-3.26.65-3.91,0-6.52-2.61l-14.34-14.34c-5.87-5.87-11.73-12.38-16.95-18.25,0-.65-1.3-1.3-1.96-2.61-.65-.65-1.3-1.3-1.96-1.3-1.3.65-3.26,6.52-2.61,7.82,0,1.3.65,1.96.65,3.26s0,2.61.65,3.26c.65,4.56,1.3,11.08,1.96,16.95.65,5.87,1.3,11.73,1.3,15.64,0,.65.65,3.26-.65,5.87-.65,1.3-1.96,1.96-2.61,2.61-.65,0-1.96.65-4.56.65-2.61-.65-4.56-1.96-5.87-3.26-1.96-1.3-3.91-3.26-6.52-5.21s-5.21-4.56-8.47-6.52c3.91-4.56,5.21-10.43,3.26-16.3-.65-1.96-6.52-13.04-20.86-7.82-2.61.65-5.21,1.96-7.17,2.61-1.96.65-3.91,1.3-5.21,1.3-1.96.65-3.91.65-5.21,1.3-.65,0-1.96.65-2.61.65-1.3.65-1.96,1.3-1.3,2.61,0,.65,1.3,1.96,2.61,1.96,3.91,0,4.56,0,5.21,1.96.65,1.3,1.3,3.26,2.61,6.52,1.3,3.91,2.61,7.17,3.91,11.08s2.61,7.17,3.91,11.08c1.3,3.91,1.96,5.87,2.61,7.82q.65,2.61-2.61,4.56c-1.3.65-1.96,1.96-1.3,3.26.65.65,1.3,1.3,2.61,1.3.65,0,1.3-.65,2.61-.65,1.96-.65,4.56-1.3,7.17-1.96,3.26-.65,5.21-1.3,6.52-1.96.65,0,1.96-.65,2.61-.65,1.3-.65,1.96-1.3,1.96-2.61,0-.65-1.3-1.96-2.61-1.96-4.56.65-5.21,0-5.87-2.61-.65-.65-1.3-3.26-2.61-7.17-.65-1.96-1.3-3.91-1.96-5.87.65-.65,1.96-.65,3.26-1.3.65,0,.65-.65,1.3-.65h0s.65,0,1.3.65,1.3,1.3,1.96,1.96c3.26,3.26,5.87,5.87,9.13,8.47,5.87,5.21,9.13,5.21,12.38,3.91,1.3-.65,22.81-7.82,24.12-8.47s1.96-1.96,1.3-2.61c0-.65-1.3-1.96-2.61-1.3-2.61,0-3.91.65-4.56,0s-.65-1.96-1.3-3.91c0-1.3,0-2.61-.65-3.26,0-1.96-.65-3.26-.65-4.56h0c3.91-1.3,7.82-3.26,11.73-4.56h.65l5.21,5.21,3.26,3.26c.65.65.65,1.3.65,1.3,0,.65-.65,1.3-1.96,1.96-1.3.65-1.3,1.96-.65,2.61.65.65,1.96,1.3,3.26.65.65-.65,1.96-.65,3.26-1.3,1.3-.65,3.26-1.3,5.21-1.96s3.26-1.3,4.56-1.96,1.96-.65,3.26-1.3c1.3-.65,1.96-1.96,1.3-2.61-1.96.65-3.26-.65-4.56-.65ZM638.67,839.15c-1.3.65-3.91,1.3-3.91,1.3h0c-1.3-3.91-2.61-7.82-4.56-11.73-1.96-5.87-2.61-6.52-2.61-7.17.65-.65,1.3-1.3,3.26-1.96,7.17-2.61,11.08,5.21,12.38,9.13,2.61,6.52,0,8.47-4.56,10.43ZM689.51,824.81c-3.26,1.3-5.87,2.61-9.13,3.26,0-1.96-.65-5.21-1.3-7.82-.65-2.61-.65-5.87-1.3-7.82,1.96,1.96,4.56,5.21,7.17,7.82,2.61,2.61,3.91,3.91,4.56,4.56h0Z"/>
    <path class="cls-1" d="M606.73,836.54c-1.96-2.61-4.56-5.21-7.17-7.17-5.87-3.91-12.38-4.56-19.55-3.26-7.17,1.3-12.38,5.21-15.64,10.43-1.3,1.96-3.26,5.21-3.91,9.13s-1.3,9.13.65,14.34c.65,3.91,1.96,7.17,4.56,10.43,1.96,3.26,4.56,5.21,7.82,7.17,5.87,3.91,13.69,5.21,22.16,3.26,7.82-1.96,13.04-5.87,16.95-12.38,1.96-3.26,2.61-7.17,2.61-10.43,0-3.91-.65-7.82-1.96-12.38-2.61-3.26-4.56-6.52-6.52-9.13ZM602.17,869.13c-.65,3.91-3.26,6.52-7.17,7.17-5.87,1.3-10.43-1.3-14.34-5.21-3.91-4.56-6.52-10.43-7.82-16.3-1.96-6.52-1.96-11.73-1.3-15.64.65-3.91,3.26-5.87,7.17-7.17,3.26-.65,7.17,0,11.08,3.26,3.91,3.26,7.82,8.47,10.43,16.95,1.96,7.17,2.61,13.04,1.96,16.95Z"/>
    <path class="cls-1" d="M443.13,886.73c-1.3,0-1.96.65-2.61,2.61-2.61,7.17-3.91,9.13-7.17,9.13h-3.26c-7.17,0-9.78,0-10.43-.65s-.65-1.3-1.3-3.26v-37.15c0-2.61.65-2.61,4.56-3.91,1.3-.65,1.96-1.96,1.96-2.61s-.65-1.96-2.61-1.96h-21.51c-1.96,0-2.61.65-2.61,1.96,0,.65.65,1.96,1.96,2.61,3.91.65,4.56,1.96,4.56,3.91v39.76c0,1.96-.65,2.61-4.56,3.26-1.96,0-3.26,1.3-2.61,2.61,0,.65.65,1.96,2.61,1.96h39.11c1.96,0,2.61-1.3,3.26-3.26,1.3-3.26,1.96-8.47,1.96-11.08,0-1.3-.65-1.96-.65-2.61q0-1.3-.65-1.3Z"/>
    <path class="cls-1" d="M374.03,846.32c-.65,0-1.3,0-1.96.65-1.3,1.3-3.26,1.3-6.52.65-10.43-.65-20.86-1.96-31.29-2.61-1.96,0-1.96-.65-2.61-1.3-.65-.65-1.3-1.3-1.96-1.3s-1.96.65-1.96,1.96c-.65,3.26-1.3,7.17-1.96,9.78,0,1.3-.65,1.96-.65,2.61,0,1.96.65,2.61,1.3,2.61s1.96-.65,2.61-1.96c1.96-5.87,3.26-6.52,4.56-6.52,1.96,0,2.61,0,9.78.65h.65v.65c-.65,5.87-1.3,11.73-1.96,16.95-.65,5.87-1.3,11.73-1.96,16.95,0,3.26-.65,5.21-.65,6.52-.65,1.96-.65,2.61-6.52,3.26-1.96,0-2.61,1.3-2.61,1.96,0,1.3.65,1.96,1.96,1.96h3.91c2.61,0,5.21,0,7.82.65,2.61,0,5.21.65,7.82.65,1.96,0,3.26.65,4.56.65,1.96,0,3.26-.65,3.26-1.96,0-.65-.65-1.96-1.96-2.61-5.21-1.3-5.87-1.96-5.87-3.91s0-3.26.65-7.17c.65-5.87.65-11.08,1.3-16.95.65-5.87,1.3-11.08,1.3-16.95v-.65h0c9.78.65,11.08.65,12.38,1.3.65.65,1.3,3.26,1.3,5.21v.65c0,1.96,1.3,2.61,1.96,2.61,1.3,0,1.96-.65,1.96-2.61.65-4.56.65-9.13,1.3-11.73v-1.96q.65,1.3,0,1.3Z"/>
    <path class="cls-1" d="M318.63,842.41h-.65c-1.3.65-3.26.65-4.56,0-6.52-.65-13.04-1.96-19.55-3.26-1.96-.65-3.91-.65-5.21-1.3-1.3,0-2.61-.65-3.91-.65-1.96-.65-2.61.65-2.61,1.3s0,1.96,1.96,2.61c3.91,1.3,3.91,2.61,3.26,4.56,0,1.3-.65,2.61-1.3,7.82-.65,3.91-1.3,7.17-1.96,11.08-.65,3.91-1.3,7.17-1.96,11.08-1.3,4.56-1.3,6.52-1.96,7.82-.65,2.61-1.3,3.26-6.52,3.26-1.96,0-2.61.65-3.26,1.96,0,.65.65,1.96,1.96,2.61.65,0,3.26.65,5.21.65,2.61.65,5.21.65,6.52,1.3,4.56.65,10.43,1.96,15.64,2.61,4.56.65,8.47,1.3,11.08,1.3,1.96,0,3.26,0,3.91-1.96,1.3-1.96,3.26-6.52,3.91-10.43v-1.96c0-.65-.65-.65-1.3-.65s-1.96.65-2.61,1.96c-2.61,4.56-3.91,6.52-5.87,7.17-.65.65-2.61,0-5.21,0s-10.43-1.3-11.73-2.61c-.65-.65-.65-1.3,0-7.17l1.96-12.38h0c2.61.65,5.21.65,8.47,1.3q4.56.65,5.21,1.3c.65.65.65,1.96.65,3.26v.65c0,1.3.65,1.96,1.96,1.96.65,0,1.3,0,1.3-.65.65-.65.65-1.3,1.3-2.61.65-2.61,1.3-6.52,2.61-11.73v-1.96c0-.65-.65-.65-1.3-.65s-1.96.65-2.61,1.3c-.65.65-.65,1.3-1.3,1.96-.65.65-1.3.65-5.87,0-2.61-.65-5.21-.65-8.47-1.3.65-2.61,1.3-5.21,1.3-7.82.65-2.61.65-5.21,1.3-7.82,0-1.96.65-1.96,1.3-1.96,1.3,0,3.91,0,6.52.65,3.26.65,5.87.65,5.87,1.3,1.3.65,1.3,1.96,1.3,5.87,0,1.3.65,2.61,1.96,2.61.65,0,1.96-.65,2.61-2.61.65-3.91,1.96-7.17,2.61-9.78v-1.3c-.65,1.96-1.3,1.3-1.96,1.3Z"/>
    <path class="cls-1" d="M155.67,818.94c.65-3.26,0-6.52-.65-9.78-1.96-6.52-5.87-11.08-11.73-13.04-5.87-2.61-11.73-1.96-17.6.65-2.61,1.3-5.87,2.61-8.47,5.21-3.26,2.61-6.52,6.52-9.13,11.73-1.96,3.26-3.26,7.17-3.91,10.43s-.65,6.52,0,9.78c1.3,6.52,5.87,11.08,13.04,14.34,6.52,2.61,13.04,2.61,20.21-.65,3.26-1.96,6.52-3.91,9.13-7.17s5.21-6.52,6.52-11.08c1.3-3.26,2.61-7.17,2.61-10.43ZM140.03,828.07c-3.26,6.52-6.52,11.73-9.78,14.34-3.26,2.61-6.52,3.26-9.78,1.96-4.56-1.96-6.52-6.52-5.87-11.73s2.61-11.73,5.21-16.95c3.26-5.87,6.52-10.43,9.78-13.04s6.52-3.26,9.13-1.96,5.21,3.91,5.87,8.47c.65,3.91-.65,10.43-4.56,18.9Z"/>
    <path class="cls-1" d="M507,892.6c-3.91,0-4.56-.65-6.52-3.91-1.96-3.91-5.87-10.43-9.78-17.6-3.91-7.17-7.82-14.99-11.08-21.51,0-.65-.65-1.3-.65-3.26,0-.65-.65-1.96-1.96-1.96-1.96,0-5.87,5.87-6.52,7.17,0,1.3,0,1.96-.65,3.26s-.65,2.61-1.3,3.26c-1.3,4.56-3.26,11.08-5.21,16.95-1.96,5.87-3.91,11.73-5.21,15.64-1.96,5.21-2.61,5.87-7.17,7.17-1.96.65-2.61,1.96-1.96,2.61,0,.65,1.3,1.96,2.61,1.96h2.61c1.96,0,4.56-.65,6.52-.65h7.82c1.96,0,2.61-1.3,2.61-1.96s-.65-1.96-2.61-1.96c-2.61,0-4.56-.65-4.56-1.3-.65-.65,0-1.96,0-3.91.65-1.3.65-2.61.65-3.91.65-1.96.65-3.26,1.3-4.56h0c5.21-.65,9.78-.65,14.99-1.3h.65c.65,1.96,1.96,3.91,3.26,6.52.65,1.96,1.96,3.26,1.96,3.91v1.3c0,.65-1.3.65-2.61,1.3-1.96.65-1.96,1.96-1.96,2.61s1.3,1.96,2.61,1.96,2.61-.65,4.56-.65c1.96-.65,4.56-.65,6.52-.65,2.61-.65,4.56-.65,5.87-.65s2.61,0,3.91-.65c1.96,0,2.61-1.3,2.61-2.61,1.3-1.3.65-2.61-1.3-2.61ZM479.63,876.3c-3.91,0-7.82.65-11.73.65.65-1.96,1.3-5.21,1.96-7.82.65-2.61,1.3-5.87,1.96-7.82,1.3,2.61,3.26,6.52,4.56,9.78,1.96,2.61,2.61,4.56,3.26,5.21h0Z"/>
    <path class="cls-1" d="M539.6,861.31c3.26-1.96,9.13-6.52,7.17-13.69-2.61-11.08-15.64-9.78-18.9-9.13-2.61.65-5.21,1.3-7.82,1.3-1.96.65-3.91.65-5.21,1.3-1.3,0-2.61.65-4.56.65s-3.26.65-4.56.65c-1.96,0-2.61,1.3-2.61,1.96s1.3,1.96,2.61,1.96c3.91.65,4.56.65,5.21,3.91.65,1.96.65,2.61,1.3,7.82.65,3.26,1.3,7.17,1.96,10.43.65,3.26,1.3,7.17,1.96,10.43.65,3.91.65,5.87,1.3,7.17v1.3c0,1.96,0,2.61-3.91,3.91-1.96.65-2.61,1.96-1.96,2.61,0,.65,1.3,1.96,3.26,1.3.65,0,1.3,0,1.96-.65,1.96,0,3.91-.65,5.87-.65,1.3,0,2.61,0,4.56-.65,1.96,0,5.21-.65,8.47-1.3,6.52-1.3,11.73-3.26,14.99-5.87,5.87-4.56,7.82-9.78,6.52-15.64-3.91-7.82-12.38-9.13-17.6-9.13ZM524.6,862.61c-.65-4.56-1.3-8.47-2.61-13.04-.65-2.61-.65-3.26,0-3.91,0-.65,1.3-1.3,3.26-1.96,5.21-.65,9.13,1.96,10.43,8.47.65,3.91,0,6.52-3.26,8.47-1.3.65-2.61,1.3-5.21,1.3-.65.65-1.96.65-2.61.65h0ZM536.99,888.04c-3.26.65-5.87.65-7.17-.65-.65-.65-1.3-1.96-1.96-5.21-.65-4.56-1.96-9.13-2.61-13.69h0c.65-.65,1.96-.65,3.91-1.3,9.13-1.96,12.38,3.91,13.04,9.78,1.96,5.87,0,9.78-5.21,11.08Z"/>
    <path class="cls-1" d="M248.88,882.82c-3.26-1.3-3.91-2.61-4.56-6.52-.65-4.56-1.3-11.73-1.96-20.21-.65-7.82-1.3-16.95-1.3-24.12,0-.65,0-1.96.65-3.26,0-.65,0-1.96-1.3-1.96-1.3-.65-7.17,3.26-8.47,4.56-.65,1.3-1.3,1.96-1.96,2.61-.65,1.3-1.3,1.96-1.96,3.26-3.26,3.91-7.17,9.13-11.08,14.34-3.91,5.21-7.82,9.78-10.43,13.04-1.96,2.61-3.26,3.91-4.56,4.56-1.96.65-3.26.65-3.91,0-.65,0-2.61-.65-3.91-1.96-1.96-1.96-1.96-4.56-2.61-5.87-.65-2.61-1.3-5.21-1.96-8.47-.65-3.26-1.3-6.52-1.3-9.78,6.52-1.3,11.73-5.21,13.69-11.08.65-2.61,3.91-14.34-11.08-18.25-2.61-.65-5.21-1.96-7.17-2.61-1.96-.65-3.91-1.3-5.21-1.3-1.96-.65-3.26-1.3-4.56-1.96-.65-.65-1.96-.65-1.96-.65-1.3-.65-1.96,0-2.61,1.3-.65.65-.65,1.96.65,2.61,2.61,1.96,3.26,2.61,2.61,4.56-.65,1.3-1.3,3.26-2.61,6.52-1.3,3.91-3.26,7.17-4.56,11.08s-3.26,7.17-4.56,11.08c-1.96,3.91-2.61,5.87-3.26,7.82-1.3,1.96-1.3,2.61-5.21,2.61-1.96,0-2.61.65-3.26,1.96-.65.65,0,1.96,1.3,2.61.65,0,1.3.65,2.61.65,1.96.65,4.56,1.3,7.17,2.61s5.21,1.96,6.52,2.61c.65.65,1.96.65,2.61.65,1.3.65,2.61,0,2.61-.65.65-.65,0-1.96-.65-3.26-3.26-2.61-3.91-2.61-2.61-5.87,0-1.3,1.3-3.26,2.61-7.17.65-1.96,1.3-3.91,1.96-5.87.65,0,1.96.65,3.26.65h1.3s.65.65.65,1.3v3.26c0,4.56.65,7.82,1.3,12.38,1.3,7.82,3.91,9.13,7.17,10.43,1.3.65,24.77,7.17,26.07,7.82,1.96.65,2.61-.65,3.26-1.3.65-.65,0-1.96-1.3-3.26-1.96-1.3-3.26-1.96-3.26-3.26,0-.65.65-1.96,1.96-3.91.65-1.3,1.3-1.96,1.96-3.26,1.3-1.3,1.96-2.61,2.61-3.91h0c4.56,1.3,9.13,1.96,13.69,3.26q.65,0,.65.65c0,1.96,0,4.56.65,7.17v5.87c0,.65-1.3.65-2.61.65-1.96,0-2.61,1.3-2.61,1.96s.65,1.96,1.96,2.61c1.3,0,2.61.65,3.91.65,1.96.65,3.91.65,5.87,1.3,2.61.65,4.56,1.3,5.87,1.3,1.3.65,2.61.65,3.26.65,1.96.65,2.61-.65,3.26-1.3-1.3,0-1.96-1.3-3.26-1.96ZM178.49,839.15c-1.3-.65-3.26-1.3-3.91-1.96v-.65c1.3-3.91,3.26-7.82,4.56-11.73,2.61-5.87,2.61-6.52,3.26-7.17s1.96,0,3.91.65c7.17,2.61,4.56,11.08,3.26,14.34-3.26,7.17-6.52,7.82-11.08,6.52ZM230.63,858.05c-3.26-.65-7.17-1.96-10.43-2.61,1.3-1.96,3.26-4.56,5.21-7.17,1.96-2.61,3.26-5.21,4.56-6.52,0,2.61,0,7.17.65,10.43v5.87h0Z"/>
    <path class="cls-1" d="M378.6,451.32c.65,0,.65.65.65,1.3l-16.3,49.54v.65h.65l42.37-30.64h1.3l42.37,30.64h.65s.65-.65,0-.65l-15.64-49.54c0-.65,0-1.3.65-1.3l42.37-30.64s.65-.65,0-.65l-.65-.65h-52.15q-.65,0-1.3-.65l-16.3-49.54-.65-.65q-.65,0-.65.65l-16.3,49.54c0,.65-.65.65-1.3.65h-52.15q-.65,0-.65.65v.65l43.02,30.64ZM356.43,424.59h36.5q.65,0,1.3-.65l12.38-38.46h.65v52.15l13.04-11.73q.65-.65,1.3-.65h36.5s.65,0,.65.65v.65l-50.84,11.73,34.55,53.45v.65h-.65l-33.24-24.12q-.65-.65-.65-1.3v-28.68l-33.24,51.49h-.65v-.65l11.73-37.15c0-.65.65-.65.65-1.3l21.51-13.04-50.84-11.73q-1.3-.65-.65-1.3-.65,0,0,0Z"/>
    <path class="cls-1" d="M578.7,294.23c1.96,1.3,5.87-2.61,8.47-7.82s3.26-11.08.65-11.73c-1.96-1.3-5.87,2.61-8.47,7.82s-3.26,10.43-.65,11.73Z"/>
    <path class="cls-1" d="M602.82,280.54c3.26-2.61,5.21-6.52,3.91-7.82-1.3-1.3-4.56,0-8.47,2.61-3.26,2.61-5.21,6.52-3.91,7.82s5.21,0,8.47-2.61Z"/>
    <path class="cls-1" d="M567.62,294.88s.65,0,0,0c2.61,0,4.56-5.21,4.56-11.08s-1.96-11.08-3.91-11.08h0c-2.61,0-3.91,5.21-3.91,11.08-.65,5.87,1.3,10.43,3.26,11.08Z"/>
    <path class="cls-1" d="M259.31,549.74c0-.65,0-1.3-.65-1.3-.65-.65-1.3-1.3-1.96-1.96-5.21-3.91-9.78,1.3-3.91,3.91,1.3.65,3.26.65,5.21,0,.65,0,1.3-.65,1.3-.65Z"/>
    <path class="cls-1" d="M557.19,294.23c1.96-1.3,1.96-6.52-.65-11.73-2.61-5.21-6.52-9.13-8.47-7.82s-1.96,6.52.65,11.73,6.52,8.47,8.47,7.82Z"/>
    <path class="cls-1" d="M804.23,728.99c-29.98-28.68-24.12-52.15-40.41-81.48-1.96-3.26-6.52-2.61-7.82.65-6.52,21.51-49.54,20.86-67.14,29.98-.65,0-1.3,0-1.3-.65V251.21c0-9.78,3.26-15.64,7.82-18.9,5.21-3.26,13.04-4.56,22.16-4.56,4.56,0,5.21-4.56,3.91-6.52l-35.2-43.02c-.65-1.3-1.96-1.96-3.26-1.96h-134.93c-.65,0-.65-.65-.65-1.3,7.17-12.38-1.96-28.68-16.3-28.68h-31.94c-.65,0-.65-.65-.65-.65v-38.46c13.04-24.77,26.72-49.54,39.76-74.31,1.3-1.96,0-5.21-1.96-5.87-17.6-6.52-33.24-3.26-46.28,10.43h0c-2.61,2.61-1.3,6.52,1.96,7.17,3.91.65,5.21,5.87,2.61,8.47-3.91,3.91-10.43-.65-8.47-5.87,1.3-2.61-.65-5.21-3.26-5.87-14.99-1.96-21.51,2.61-26.07,17.6-.65,3.26,1.96,5.87,5.21,5.21,4.56-1.3,7.17,0,6.52,4.56-.65,8.47-9.78,16.95-18.9,15.64-12.38-1.3-14.99-18.25-11.73-21.51,1.3-1.3,5.21.65,7.82,1.96,2.61,1.3,5.21,1.96,6.52-1.3,6.52-14.34-2.61-27.38-18.9-28.03-2.61,0-4.56,1.96-4.56,3.91,0,4.56-5.87,7.17-9.13,3.91s-.65-9.78,4.56-9.13c2.61.65,4.56-1.3,5.21-3.91.65-13.04-16.3-16.3-18.25-24.12-1.3-3.91-6.52-3.91-7.82,0-1.96,8.47-18.25,11.08-18.25,24.12,0,2.61,2.61,4.56,5.21,3.91,5.21-.65,8.47,5.21,4.56,9.13-3.26,3.26-9.13.65-9.13-3.91,0-2.61-1.96-4.56-4.56-3.91-16.3.65-25.42,13.69-18.25,29.98,1.3,3.26,4.56,2.61,6.52,1.3,2.61-1.96,6.52-3.26,7.82-1.96,3.26,3.26,0,20.21-11.73,21.51-9.13,1.3-18.9-7.82-18.9-15.64,0-4.56,2.61-5.87,6.52-4.56,3.26.65,5.87-1.96,5.21-5.21-4.56-14.34-11.08-19.55-26.07-17.6-2.61,0-3.91,2.61-3.26,5.21,1.96,5.21-4.56,9.78-8.47,5.87-2.61-2.61-1.3-7.82,2.61-8.47,3.26-.65,4.56-4.56,1.96-7.17h0c-13.04-13.69-28.68-16.95-46.28-10.43-2.61.65-3.91,3.26-2.61,5.21,12.38,24.77,26.72,49.54,39.76,74.31v38.46c0,.65-.65.65-.65.65h-32.59c-14.34,0-23.47,16.3-16.3,28.68,0,.65,0,1.3-.65,1.3h-134.93c-1.96,0-2.61.65-3.26,1.96l-35.2,43.02c-1.96,2.61-1.3,6.52,3.91,6.52,9.13,0,16.95,1.3,22.16,4.56s7.82,9.13,7.82,18.9v425.64c0,.65-.65.65-1.3.65-17.6-9.13-60.62-8.47-67.14-29.98-1.3-3.26-5.87-3.91-7.82-.65-16.95,29.33-11.08,52.8-40.41,81.48-12.38,11.73-9.13,23.47,5.21,31.29l27.38,13.69c.65,0,.65.65,0,1.3-3.26,3.26-6.52,5.87-8.47,10.43-3.26,6.52-1.96,13.04,2.61,17.6,1.96,1.96,4.56,3.91,7.82,5.87l27.38,13.69c.65,0,.65.65,0,1.3-3.26,3.26-6.52,5.87-8.47,10.43-3.26,6.52-1.96,13.04,2.61,17.6,1.96,1.96,4.56,3.91,7.82,5.87,94.51,50.19,205.98,76.26,318.09,78.22h30.64c112.11-1.96,223.57-28.03,318.09-78.22,3.26-1.96,5.87-3.91,7.82-5.87,4.56-5.21,5.87-11.73,2.61-17.6-2.61-4.56-5.21-6.52-8.47-10.43-.65-.65,0-.65,0-1.3l27.38-13.69c3.26-1.96,5.87-3.91,7.82-5.87,4.56-5.21,5.87-11.73,2.61-17.6-2.61-4.56-5.21-6.52-8.47-10.43-.65-.65,0-.65,0-1.3l27.38-13.69c14.34-7.82,17.6-19.55,5.21-31.29ZM681.69,706.83l5.21,11.73c.65.65,0,1.3-.65,1.3l-14.99,3.26c-.65,0-1.3-.65-.65-1.3,1.3-1.3,1.96-2.61,2.61-3.91,2.61-3.26,4.56-7.17,6.52-11.08.65-.65,1.96-.65,1.96,0ZM605.43,251.86s0-.65,0,0h33.24c6.52,0,12.38,2.61,16.95,7.17,4.56,4.56,7.17,10.43,7.17,16.95s-2.61,13.04-7.17,16.95c-4.56,4.56-10.43,7.17-16.95,7.17-2.61,0-5.21-.65-7.82-1.3-1.96-.65-4.56-1.96-6.52-3.26l-.65-.65v-.65l3.26-4.56c0-.65.65-.65,1.3,0l3.91,1.96c1.96.65,3.26.65,5.21.65,4.56,0,9.13-1.96,11.73-5.21,3.26-3.26,5.21-7.17,5.21-11.73s-1.96-9.13-5.21-11.73c-3.26-3.26-7.17-5.21-11.73-5.21h-15.64q-.65,0-.65.65c-3.26,20.86-18.25,37.81-38.46,43.67-.65,0-.65.65-.65.65v9.78q0,.65-.65.65c-9.13,3.26-20.21,3.26-29.33,0-.65,0-.65-.65-.65-.65v-9.78q0-.65-.65-.65c-19.55-5.87-35.2-22.81-38.46-43.67,0-.65-.65-.65-.65-.65h-21.51c-.65,0-.65-.65-.65-.65v-5.87c0-.65.65-.65.65-.65h37.15c23.47,21.51,56.06,21.51,78.22.65ZM325.15,146.91c-.65,0-.65-.65-.65-.65v-33.89c0-.65.65-.65.65-.65h164.26c.65,0,.65.65.65.65v33.89c0,.65-.65.65-.65.65h-164.26ZM445.73,176.25l-.65.65h-59.32l-18.25-19.55v-.65l.65-.65h59.32l18.25,19.55s0,0,0,.65ZM213.03,315.74c.65-13.04,5.87-25.42,14.34-35.85,0,0,.65-.65.65,0,3.26,1.96,7.17,3.91,9.78,6.52v1.3c-16.3,18.25-16.3,44.98,0,63.23v1.3c-3.26,2.61-6.52,4.56-9.78,6.52h-.65c-9.78-12.38-14.99-27.38-14.34-43.02ZM200.65,272.72q-.65,0-.65-.65c-.65-3.91-1.3-7.82-.65-11.73q0-.65.65-.65c28.68-5.21,56.71,11.08,67.14,37.81v.65c-3.26,1.96-6.52,3.91-10.43,5.21q-.65,0-1.3-.65c-2.61-7.17-7.17-13.69-13.04-18.9-11.73-9.78-26.72-14.34-41.72-11.08ZM231.28,322.25q-.65,0-.65-.65c0-3.91,0-7.82.65-11.73,0-.65.65-.65.65-.65,22.81,4.56,46.28-8.47,54.1-29.98,0-.65.65-.65,1.3-.65,3.91,1.3,7.17,3.26,10.43,5.21,0,0,.65.65,0,.65-3.91,10.43-11.08,18.9-19.55,26.07-13.04,10.43-29.98,14.99-46.93,11.73ZM306.89,352.89c17.6-17.6,18.25-44.98,3.26-63.23-3.91-4.56-8.47-8.47-13.69-11.73-11.73-6.52-26.07-7.82-39.11-3.26h-.65c-2.61-3.26-5.87-5.87-9.78-8.47l-.65-.65s0-.65.65-.65c11.08-5.21,23.47-7.17,35.85-5.21,8.47,1.3,16.3,4.56,23.47,9.13,31.94,20.86,36.5,66.49,9.78,93.21-18.25,18.25-45.63,22.81-68.44,11.73l-.65-.65s0-.65.65-.65c3.26-2.61,6.52-5.21,9.78-8.47h.65c16.95,5.87,36.5,1.3,48.89-11.08ZM522.65,231.65h0s.65-.65,0,0c.65,0,.65.65.65.65v.65c0,1.3,0,3.26-1.3,5.21-3.26,7.17-13.69,12.38-17.6,9.78-3.26-1.96-1.96-9.13-1.3-11.08,1.96-9.78,9.78-14.99,12.38-16.95,3.26-2.61,7.17-3.91,9.13-4.56h.65c1.3,0,.65,1.3.65,1.3-.65,2.61-1.3,5.87-3.26,9.13-4.56,7.82-9.78,9.78-9.78,9.78,0,0,1.3.65,9.78-3.91ZM501.79,245.99v.65h-.65c-14.34-4.56-18.25-24.12-5.87-33.24,8.47-6.52,21.51-7.82,21.51-18.9q0-.65.65-.65h.65c13.69,20.86-26.72,26.07-16.3,52.15ZM490.71,362.67c0-.65.65-.65.65-.65h135.58c.65,0,.65.65.65.65v5.87c0,.65-.65.65-.65.65h-134.93c-.65,0-.65-.65-.65-.65v-5.87h-.65ZM490.71,375.05c0-.65.65-.65.65-.65h140.14c2.61,0,4.56-.65,5.87-2.61,1.3-1.3,2.61-3.91,2.61-5.87,0-2.61-.65-4.56-2.61-5.87-1.3-1.3-3.91-2.61-5.87-2.61h-139.49c-.65,0-.65-.65-.65-.65v-6.52h0l29.98-34.55h30.64c.65,0,.65.65.65.65v6.52q0,.65-.65.65c-6.52,1.96-10.43,5.87-10.43,9.78,0,7.17,11.73,12.38,26.07,12.38s26.07-5.87,26.07-12.38c0-3.91-3.91-7.82-10.43-9.78-.65,0-.65-.65-.65-.65v-6.52c0-.65.65-.65.65-.65h29.98s.65,0,.65.65l29.98,41.06c1.96,2.61,3.26,5.87,3.26,9.13,0,4.56-1.96,8.47-4.56,11.08h0c-2.61,2.61-6.52,4.56-11.08,4.56h-139.49c-.65,0-.65-.65-.65-.65v-6.52h-.65ZM531.12,155.39c5.87,0,10.43,4.56,10.43,10.43s-4.56,10.43-10.43,10.43h-25.42l-18.25-19.55v-.65c0-.65.65-.65.65-.65h43.02ZM286.69,35.45v-1.3c0-.65.65-.65.65-.65,9.78-1.96,18.9,0,26.72,5.87.65.65,0,1.3-.65,1.96-7.17,9.13-.65,21.51,10.43,21.51,7.17,0,13.04-5.87,13.69-12.38,0-.65.65-.65.65-.65,4.56,0,7.17,1.3,9.13,5.21.65,1.3-1.3,1.3-1.96,1.3-5.21,1.96-7.82,7.17-7.82,12.38.65,16.95,23.47,31.29,39.11,19.55,7.17-5.21,11.08-16.3,9.78-24.77-1.96-8.47-8.47-11.08-16.95-7.82-1.3.65-1.3-1.96-1.3-2.61,0-5.87,3.91-9.13,9.13-10.43,1.3,0,.65,1.96,3.91,4.56,8.47,8.47,22.81,2.61,22.81-9.78,0-5.87-3.26-10.43-9.13-12.38-.65,0-.65-.65,0-1.3,3.26-1.3,8.47-3.91,11.73-7.82h.65c3.26,3.91,8.47,6.52,11.08,9.78.65.65,0,.65,0,1.3-5.21,1.96-9.13,7.17-9.13,12.38,0,11.73,14.34,18.25,22.81,9.78,3.26-3.26,2.61-5.21,3.91-4.56,5.87.65,9.78,3.91,9.78,9.78,0,.65,0,3.26-1.3,2.61-7.82-3.26-14.99-.65-16.95,7.82-1.96,8.47,2.61,19.55,9.78,24.77,15.64,12.38,37.81-2.61,39.11-19.55,0-5.21-1.96-10.43-7.82-12.38-.65,0-2.61-.65-1.96-1.3,1.96-3.91,4.56-5.21,9.13-5.21q.65,0,.65.65c.65,7.17,6.52,12.38,13.69,12.38,11.08,0,17.6-13.04,10.43-21.51-.65-.65-1.96-1.3-.65-1.96,7.82-6.52,16.95-8.47,26.72-5.87q.65,0,.65.65v1.3c-11.73,22.16-24.12,44.98-35.85,67.14h-169.47c-11.08-22.81-23.47-46.28-35.2-68.44ZM282.78,155.39h24.77l18.25,19.55v.65l-.65.65h-42.37c-5.87,0-10.43-4.56-10.43-10.43s4.56-10.43,10.43-10.43ZM241.71,202.32c32.59,0,58.66,25.42,60.62,57.36,0,0,0,.65-.65.65h-.65l-3.26-1.3h0c-2.61-1.3-5.21-1.96-8.47-2.61,0,0-.65,0-.65-.65-3.26-22.81-23.47-40.41-46.93-40.41-25.42,0-46.28,20.21-47.58,45.63-.65,14.99,5.87,28.68,16.95,38.46,0,0,.65.65,0,.65-1.3,3.91-1.96,7.82-2.61,12.38,0,0,0,.65-.65.65h-.65c-15.64-10.43-25.42-28.03-26.07-46.93-1.3-34.55,26.07-63.88,60.62-63.88ZM175.88,269.46h.65l.65.65c.65,3.91,1.3,8.47,2.61,12.38v.65c-20.86,17.6-22.81,50.19-2.61,69.74,14.34,14.34,35.85,18.25,54.1,9.13,13.69-6.52,24.12-20.21,26.07-35.85,0,0,0-.65.65-.65,3.91-1.3,7.82-2.61,11.73-3.91h.65l.65.65c-.65,13.69-5.87,26.07-14.34,36.5-22.81,26.72-63.23,28.68-88.65,3.26-27.38-26.72-22.81-71.05,7.82-92.56ZM134.16,406.99c0-.65.65-.65.65-.65h218.36c2.61,0,3.91-1.96,3.91-3.91v-217.06c0-.65.65-.65.65-.65h97.12c.65,0,.65.65.65.65v216.4c0,2.61,1.96,3.91,3.91,3.91h218.36c.65,0,.65.65.65.65v101.03c0,.65-.65.65-.65.65h-217.06c-2.61,0-3.91,1.96-3.91,3.91v297.23s0,.65-.65.65l-48.23,18.9h-1.3l-48.23-18.9-.65-.65v-296.58c0-2.61-1.96-3.91-3.91-3.91h-219.01c-.65,0-.65-.65-.65-.65,0,0,0-101.03,0-101.03ZM560.45,562.12s0,.65,0,0l-.65.65c-6.52-.65-12.38,0-18.25,1.3h-.65l-7.82-11.73v-1.3c16.3-14.34,28.03-18.25,35.85-12.38v1.3c-8.47,8.47-8.47,13.69-8.47,22.16ZM535.68,570.6c14.99-5.21,35.2-1.96,50.19,1.3.65,0,.65.65.65.65v8.47h-.65c-11.73-3.26-26.72-5.87-38.46-2.61-4.56,1.3-8.47,3.26-11.08,6.52-5.87,6.52-5.87,15.64,0,22.16v28.68s0,.65-.65.65h-1.3c-30.64-18.9-28.68-55.4,1.3-65.83ZM591.74,699.01v-41.06h.65c5.21,1.3,11.08,3.26,14.99,5.87,1.96,1.3,3.26,1.96,4.56,3.26v33.89c0,12.38,1.96,18.9,5.21,29.98v.65h-.65l-16.3-3.91h-.65c-2.61,2.61-7.17,5.21-12.38,5.21h-.65v-.65c2.61-8.47,4.56-19.55,4.56-28.03.65-1.96.65-3.26.65-5.21ZM617.16,698.36l-.65-.65v-16.3c1.3-1.96,2.61-3.91,2.61-7.17.65-4.56-1.3-8.47-4.56-11.08-5.87-5.21-16.3-8.47-23.47-10.43-1.3-.65-3.26-.65-4.56-1.3-6.52-1.3-13.69-3.26-20.86-4.56-.65,0-.65-.65-.65-.65v-28.68h.65c12.38,1.96,24.77,3.91,36.5,8.47,18.25,6.52,34.55,18.25,33.89,41.72-.65,16.3-8.47,26.07-18.9,31.29q.65-.65,0-.65ZM623.03,599.93h-.65c-1.96-1.3-3.26-3.26-5.87-4.56l-.65-.65v-14.99h.65c4.56,0,8.47,0,13.69-1.96h.65v.65c.65,8.47,0,16.95-7.82,21.51ZM619.77,539.96c-9.78,9.78-7.82,15.64-7.82,29.33,0,17.6,0,35.85.65,53.45,0,0,0,.65-.65.65h-.65c-5.87-2.61-12.38-4.56-18.9-6.52-.65,0-.65-.65-.65-.65v-53.45l-7.82-11.73v-1.3c16.3-14.34,28.03-18.25,35.85-12.38q0,1.96,0,2.61h0ZM561.11,682.71q0,.65,0,0-.65.65-1.3.65c-6.52-1.96-13.04-4.56-19.55-7.17l-.65-.65v-88.65c4.56-3.91,12.38-5.21,18.9-5.21h.65v.65c1.3,33.89,1.96,67.14,1.96,100.38ZM525.26,670.98c3.26,3.26,6.52,5.87,10.43,7.82,1.3.65,3.26,1.96,4.56,2.61,13.69,6.52,30.64,10.43,45.63,10.43h.65v11.73h-.65c-7.17-.65-13.69-1.96-20.21-3.91-8.47-1.96-16.3-4.56-25.42-4.56h-4.56c-6.52,0-13.04,1.96-20.21,4.56h-.65s-.65,0-.65-.65c-4.56-13.69-6.52-28.03-7.17-43.02q0-.65.65-.65h.65l16.95,15.64ZM515.48,755.72c12.38-13.69,22.81-36.5,24.12-56.06,0-.65.65-.65.65-.65,5.21,0,11.08,1.3,16.3,2.61l3.26.65c.65,0,.65.65.65.65v27.38h-.65l-11.08-2.61q-.65,0-.65.65c-6.52,19.55-22.16,45.63-46.93,38.46-6.52-1.96-13.04-8.47-9.13-14.99,2.61-3.91,5.87-5.21,7.82-3.91,1.96,1.96,1.3,4.56,2.61,6.52,1.3,6.52,7.82,7.82,13.04,1.3ZM636.06,747.89c3.26-1.3,5.87-2.61,9.13-3.91q.65,0,1.3.65l13.04,25.42q0,.65-.65,1.3c-51.49,20.21-114.07,32.59-172.73,38.46-.65,0-1.3-1.3-.65-1.3l150.57-60.62ZM312.11,559.52h0c-11.08,5.21-9.78,19.55-6.52,29.33,2.61,8.47,7.17,16.95,11.73,24.77l.65.65s.65,0,.65-.65c1.3-2.61,3.91-4.56,7.82-4.56,0,0,.65,0,.65.65v.65c-6.52,6.52-.65,20.21,2.61,26.72,6.52,13.04,7.82,23.47-3.26,33.24v.65c3.26,14.34-19.55,35.85-2.61,37.15.65,0,.65.65.65.65,0,6.52,2.61,11.73,7.82,16.3v.65l-.65.65c-3.91,0-6.52-1.3-9.78-3.91h-.65l-.65.65c.65,3.26,1.96,6.52,4.56,9.78v1.3c-11.08,7.82-15.64,20.21-5.21,27.38,0,0,0,.65.65.65v.65c-5.87,4.56-11.73,1.96-14.34-5.21,0,0,0-.65-.65-.65h-.65c-2.61,3.26-1.96,7.17,1.3,11.08v.65s0,.65-.65.65c-13.69,7.17-25.42-9.78-7.17-16.95l.65-.65s0-.65-.65-.65c-2.61-1.3-5.87-1.3-9.13,0h-.65v-.65c1.3-7.17,6.52-9.78,13.69-7.17h.65c3.91-6.52,5.87-12.38,6.52-17.6q0-.65-.65-.65c-20.86-5.21-29.98-13.04-21.51-31.29,1.96-3.91,3.26-7.17,3.26-10.43,0-13.04-28.68-9.13-43.67-9.13-13.04,0-29.33-3.26-32.59-17.6,0,0,0-.65-.65-.65h-.65c-1.96,1.96-3.91,4.56-3.91,8.47,0,0,0,.65-.65.65h-.65c-3.26-3.91-4.56-8.47-5.21-13.69,0,0,0-.65-.65-.65h-.65c-1.96,3.26-2.61,7.17-2.61,12.38q0,.65-.65.65c-13.04,3.91-21.51,14.34-13.04,24.12v.65s0,.65-.65.65c-7.17,2.61-11.73-1.96-11.73-9.13,0,0,0-.65-.65-.65h-.65c-3.26,2.61-3.91,5.87-1.96,10.43v.65s0,.65-.65.65c-15.64,2.61-20.86-16.95-1.96-18.25,0,0,.65,0,.65-.65v-.65c-1.96-1.96-5.21-3.26-8.47-2.61,0,0-.65,0-.65-.65v-.65c3.26-6.52,9.13-7.17,15.64-2.61h.65c9.78-8.47,14.99-22.16,18.25-33.89,3.91-12.38,11.73-30.64,23.47-39.11,13.69-9.78,30.64-7.82,35.2-16.3v-.65h-.65c-5.87,6.52-16.3-3.26-23.47,3.26h-.65s-.65,0-.65-.65c-2.61-4.56-.65-9.13,3.26-14.99,0-.65.65-.65,1.3,0,27.38,16.95,23.47-26.07-1.3-7.17h-.65s-.65,0-.65-.65c-2.61-5.87-1.96-13.04,1.3-18.25,0,0,.65-.65.65,0,16.95,4.56,28.68-11.73,42.37,6.52h0l15.64,6.52c3.26,1.3-1.96,7.17-9.13,8.47,0,0-.65,0-.65.65v.65c9.78,14.34,0,31.94,7.17,41.06v.65s0,.65-.65.65c-5.21.65-9.13,0-11.73-2.61h-.65s-.65,0-.65.65c-1.96,5.87-1.3,11.73,1.96,16.95v.65l-.65.65c-5.21,0-9.78-2.61-13.69-6.52h-.65l-.65.65c0,28.03,13.69,31.94,33.89,36.5,14.99,3.26,25.42,8.47,30.64,14.34h1.3c7.82-7.82,4.56-17.6-2.61-29.98-6.52-12.38-13.69-25.42-30.64-24.12,0,0-.65,0-.65-.65v-.65c3.91-3.26,7.82-4.56,14.34-3.91h.65v-.65c-5.21-11.73-9.13-23.47-9.13-33.24,0-8.47,2.61-15.64,10.43-19.55,9.13-4.56,21.51-5.87,28.03.65,8.47,9.13-2.61,34.55,3.91,39.76,0,0,.65.65,0,.65l-.65.65c-9.78,0-14.34-6.52-14.34-20.86,0,0,0-.65-.65-.65h-.65c-2.61,2.61-3.91,5.87-3.91,9.13q0,.65-.65.65s-.65,0-.65-.65c-3.26-5.87-1.96-9.78,0-14.34,1.96-3.26,3.91-8.47-4.56-5.87ZM210.43,701.61v-.65s0-.65.65-.65c7.17-2.61,11.73.65,13.04,8.47,0,.65.65.65.65.65,7.17,0,13.69-.65,18.9-3.26.65,0,.65-.65.65-.65-3.91-12.38-3.26-21.51,1.3-28.03h.65c4.56,0,9.13,0,12.38-.65h5.21c18.25-.65,22.81,1.96,22.81,5.87,0,1.96-1.3,4.56-2.61,7.82-2.61,5.21-5.87,6.52-11.08,7.82-9.13,2.61-15.64,4.56-8.47,12.38v.65s0,.65-.65.65c-5.21,3.26-8.47,8.47-9.78,14.34,0,0,0,.65-.65.65,0,0-.65,0-.65-.65-1.96-3.26-2.61-6.52-1.96-9.78,0,0,0-.65-.65-.65h-.65c-2.61,1.96-4.56,4.56-5.87,8.47l-.65.65h-.65c-12.38-5.87-25.42-3.26-26.07,9.13v.65h-.65c-7.17-2.61-7.17-9.13-2.61-14.99v-.65s0-.65-.65-.65c-3.91-.65-7.17,1.96-8.47,6.52,0,0,0,.65-.65.65h-.65c-13.04-8.47-4.56-26.72,10.43-14.99h.65l.65-.65c0-3.26-1.96-5.87-3.91-8.47ZM329.06,807.86c.65,0,.65,1.3-.65,1.3-58.66-5.87-121.89-18.25-172.73-38.46-.65,0-.65-.65-.65-1.3l13.04-25.42c0-.65.65-.65,1.3-.65,2.61,1.3,5.87,3.26,9.13,3.91l150.57,60.62ZM170.66,551.04c-1.3-3.91-4.56-5.87-9.78-5.21h-.65v-.65c1.96-15.64,22.16-15.64,17.6,3.26v.65h.65c2.61-1.3,4.56-4.56,5.21-7.82,0,0,0-.65.65-.65h.65c5.21,5.21,4.56,11.08-1.96,15.64,0,0-.65.65,0,.65,4.56,9.13,14.34,26.07,29.98,30.64,0,0,.65,0,.65.65v.65c-4.56,3.91-8.47,8.47-11.73,14.34-3.26,5.21-5.21,9.13-7.82,15.64,0,0,0,.65-.65.65h-.65c-7.82-10.43-7.17-24.77-17.6-28.68l-.65-.65s0-.65.65-.65c4.56-1.96,9.78-2.61,14.34-1.3,0,0,.65,0,.65-.65v-.65c-2.61-2.61-6.52-4.56-11.73-5.87-.65,0-.65-.65-.65-.65,0-13.69-7.82-24.77-19.55-19.55h-.65s-.65,0-.65-.65c-.65-7.82,5.21-10.43,11.73-9.13h.65c1.3.65,1.3,0,1.3,0ZM132.86,706.83c0-.65,1.3-.65,1.3,0,1.96,3.91,3.91,7.17,6.52,11.08.65,1.3,1.96,2.61,2.61,3.91.65.65,0,1.3-.65,1.3l-14.99-3.26c-.65,0-.65-.65-.65-1.3l5.87-11.73ZM18.79,752.46c-2.61-1.3-4.56-2.61-5.87-4.56-4.56-4.56-1.96-9.13,2.61-13.69,20.21-18.9,25.42-35.85,30.64-53.45,1.96-7.17,4.56-14.34,7.82-21.51,0-.65.65-.65,1.3,0,9.13,11.73,28.03,16.3,44.98,19.55,9.78,1.96,22.16,4.56,27.38,11.08,1.3,1.3,1.96,3.91,1.3,5.21-1.96,2.61-11.73-.65-19.55-2.61l-1.96-.65c-10.43-2.61-17.6-2.61-22.16-1.3-3.26,1.3-3.91,2.61-5.21,5.21-13.69,25.42-11.73,46.93-30.64,70.4,0,0-.65.65-.65,0l-29.98-13.69ZM48.77,801.34c-2.61-1.3-4.56-2.61-5.87-4.56-4.56-4.56-1.96-9.13,2.61-13.69,7.17-7.17,13.04-13.69,18.25-22.81,10.43-17.6,11.73-33.24,19.55-52.15,0-.65.65-.65,1.3,0,13.69,14.99,43.02,18.25,62.57,23.47,6.52,1.96,10.43,3.91,12.38,6.52,1.3,1.3,1.96,3.26.65,3.91-4.56,5.21-33.89-7.82-44.98-3.26-3.91,1.3-4.56,3.91-6.52,7.17-13.04,24.12-11.08,45.63-29.33,68.44,0,0-.65.65-.65,0l-29.98-13.04ZM744.27,841.76c-.65,3.26-4.56,6.52-8.47,8.47-93.21,49.54-202.72,74.96-313.53,76.91h-30.64c-110.81-1.96-220.97-28.03-313.53-76.91-3.26-1.96-7.82-4.56-8.47-8.47-.65-3.26,1.96-7.17,5.21-9.13,5.21-5.21,9.13-9.13,13.04-14.99,14.99-20.86,15.64-38.46,24.12-59.32h1.3c3.26,3.26,7.82,6.52,13.69,9.78,64.53,31.94,157.74,47.58,232.7,52.8h1.3l44.98,17.6h2.61l44.98-17.6h1.3c74.96-5.21,168.17-20.86,232.7-52.8,5.87-2.61,10.43-6.52,13.69-9.78q.65-.65,1.3,0c9.13,20.86,9.13,39.11,24.12,59.32,3.91,5.87,7.82,9.78,13.04,14.99,2.61,2.61,5.21,5.87,4.56,9.13ZM771.64,796.78c-1.3,1.3-3.26,3.26-5.87,4.56l-29.33,14.34h-.65c-18.25-22.81-16.95-44.32-29.33-68.44-1.96-3.26-2.61-5.21-6.52-7.17-11.08-4.56-40.41,8.47-44.98,3.26-1.3-1.3,0-3.26.65-3.91,1.96-2.61,5.87-4.56,12.38-6.52,19.55-5.87,48.23-8.47,62.57-23.47q.65-.65,1.3,0c7.82,18.25,9.13,34.55,19.55,52.15,5.21,9.13,11.08,15.64,18.25,22.81,3.91,3.26,6.52,7.82,1.96,12.38ZM800.98,748.55c-1.3,1.3-3.26,3.26-5.87,4.56l-29.33,14.34h-.65c-18.25-23.47-16.3-44.98-30.64-70.4-1.3-2.61-2.61-3.91-5.21-5.21-3.91-1.96-11.08-1.96-22.16,1.3l-1.96.65c-7.17,1.96-17.6,4.56-19.55,2.61-.65-1.3,0-3.91,1.3-5.21,5.21-6.52,18.25-9.13,27.38-11.08,16.3-3.91,35.2-7.82,44.98-19.55.65-.65,1.3-.65,1.3,0,3.26,7.17,5.21,14.34,7.82,21.51,5.21,17.6,10.43,34.55,30.64,53.45,3.91,3.26,6.52,7.82,1.96,13.04Z"/>
    <path class="cls-1" d="M533.08,280.54c3.26,2.61,7.17,3.91,8.47,2.61,1.3-1.3-.65-4.56-3.91-7.82-3.26-2.61-7.17-3.91-8.47-2.61-1.3,1.3.65,4.56,3.91,7.82Z"/>
  </g>
</svg>
